<svg width="54" height="39" viewBox="0 0 54 39" fill="none" xmlns="http://www.w3.org/2000/svg">
<path d="M34.3636 24.375C27.81 24.375 14.7273 27.6169 14.7273 34.125V39H54V34.125C54 27.6169 40.9173 24.375 34.3636 24.375ZM12.2727 14.625V7.3125H7.36364V14.625H0V19.5H7.36364V26.8125H12.2727V19.5H19.6364V14.625M34.3636 19.5C36.9676 19.5 39.4649 18.4728 41.3061 16.6443C43.1474 14.8158 44.1818 12.3359 44.1818 9.75C44.1818 7.16414 43.1474 4.68419 41.3061 2.85571C39.4649 1.02723 36.9676 0 34.3636 0C31.7597 0 29.2624 1.02723 27.4211 2.85571C25.5799 4.68419 24.5455 7.16414 24.5455 9.75C24.5455 12.3359 25.5799 14.8158 27.4211 16.6443C29.2624 18.4728 31.7597 19.5 34.3636 19.5Z" fill="#16DB32"/>
</svg>
