<svg width="26" height="26" viewBox="0 0 26 26" fill="none" xmlns="http://www.w3.org/2000/svg">
<path d="M13 25.5C6.09644 25.5 0.5 19.9035 0.5 13C0.5 6.09644 6.09644 0.5 13 0.5C19.9035 0.5 25.5 6.09644 25.5 13C25.5 19.9035 19.9035 25.5 13 25.5ZM8.9375 9.87491H14.8631L8.2779 16.3964C7.91 16.7608 7.90711 17.3543 8.27144 17.7221C8.63577 18.0901 9.22936 18.093 9.59725 17.7286L16.125 11.2641V17.0624C16.125 17.5801 16.5447 17.9999 17.0625 17.9999C17.5803 17.9999 18 17.5801 18 17.0624V8.93741C18 8.41965 17.5803 7.99991 17.0625 7.99991H8.9375C8.41974 7.99991 8 8.41965 8 8.93741C8 9.45519 8.41974 9.87491 8.9375 9.87491Z" fill="white"/>
</svg>
