<svg width="266" height="148" viewBox="0 0 266 148" fill="none" xmlns="http://www.w3.org/2000/svg">
<path d="M57.4977 147.679H56.8988C56.8988 139.961 53.933 132.558 48.6538 127.101C43.3747 121.643 36.2147 118.577 28.7489 118.577C21.283 118.577 14.123 121.643 8.84385 127.101C3.56472 132.558 0.598934 139.961 0.598934 147.679H0C1.13616e-07 139.796 3.02888 132.237 8.42034 126.663C13.8118 121.089 21.1242 117.957 28.7489 117.957C36.3735 117.957 43.6859 121.089 49.0774 126.663C54.4688 132.237 57.4977 139.796 57.4977 147.679Z" fill="#3F3D56"/>
<path d="M265.927 147.679H265.328C265.328 139.961 262.362 132.558 257.083 127.101C251.804 121.643 244.644 118.577 237.178 118.577C229.712 118.577 222.552 121.643 217.273 127.101C211.994 132.558 209.028 139.961 209.028 147.679H208.429C208.429 139.796 211.458 132.237 216.85 126.663C222.241 121.089 229.553 117.957 237.178 117.957C244.803 117.957 252.115 121.089 257.507 126.663C262.898 132.237 265.927 139.796 265.927 147.679Z" fill="#3F3D56"/>
<path d="M195.552 76.7807H194.953C194.953 47.4179 171.846 23.5296 143.445 23.5296C115.043 23.5296 91.9363 47.4179 91.9363 76.7807H91.3374C91.3374 47.0765 114.713 22.9104 143.445 22.9104C172.177 22.9104 195.552 47.0765 195.552 76.7807Z" fill="#3F3D56"/>
<path d="M43.5724 24.4584C50.1053 24.4584 55.4013 18.9832 55.4013 12.2292C55.4013 5.47519 50.1053 0 43.5724 0C37.0394 0 31.7434 5.47519 31.7434 12.2292C31.7434 18.9832 37.0394 24.4584 43.5724 24.4584Z" fill="#FF6584"/>
<path d="M46.0854 96.4043L66.4076 71.3834H106.362L130.779 95.9706L130.286 96.2984H130.462V147.44H46.1133V96.2984L46.0854 96.4043Z" fill="#3F3D56"/>
<path d="M58.312 85.5264H62.9187V69.0407H58.312V85.5264Z" fill="#3F3D56"/>
<path d="M66.0905 71.0555L91.1412 101.419V147.44H46.113V95.6427L66.0905 71.0555Z" fill="#24B790"/>
<path d="M85.3521 107.445H76.1562V117.166H85.3521V107.445Z" fill="#3F3D56"/>
<path d="M85.3521 120.672H76.1562V130.393H85.3521V120.672Z" fill="#3F3D56"/>
<path d="M85.3521 107.445H76.1562V117.166H85.3521V107.445Z" fill="white"/>
<path d="M85.3521 120.672H76.1562V130.393H85.3521V120.672Z" fill="white"/>
<path d="M72.6344 107.445H63.4385V117.166H72.6344V107.445Z" fill="#3F3D56"/>
<path d="M72.6344 120.672H63.4385V130.393H72.6344V120.672Z" fill="#3F3D56"/>
<path d="M72.6344 107.445H63.4385V117.166H72.6344V107.445Z" fill="white"/>
<path d="M72.6344 120.672H63.4385V130.393H72.6344V120.672Z" fill="white"/>
<path d="M59.9163 107.445H50.7205V117.166H59.9163V107.445Z" fill="#3F3D56"/>
<path d="M59.9163 120.672H50.7205V130.393H59.9163V120.672Z" fill="#3F3D56"/>
<path d="M59.9163 107.445H50.7205V117.166H59.9163V107.445Z" fill="white"/>
<path d="M59.9163 120.672H50.7205V130.393H59.9163V120.672Z" fill="white"/>
<path d="M149.434 12.384H145.242V23.22H149.434V12.384Z" fill="#24B790"/>
<path d="M149.135 22.2912H113.498V147.679H149.135V22.2912Z" fill="#24B790"/>
<path d="M163.509 22.2912H149.135V147.679H163.509V22.2912Z" fill="#3F3D56"/>
<path d="M125.327 33.1272H119.937V38.6999H125.327V33.1272Z" fill="white"/>
<path d="M134.012 33.1272H128.621V38.6999H134.012V33.1272Z" fill="white"/>
<path d="M142.696 33.1272H137.306V38.6999H142.696V33.1272Z" fill="white"/>
<path d="M125.477 45.8207H120.086V51.3935H125.477V45.8207Z" fill="white"/>
<path d="M134.161 45.8207H128.771V51.3935H134.161V45.8207Z" fill="white"/>
<path d="M142.846 45.8207H137.456V51.3935H142.846V45.8207Z" fill="white"/>
<path d="M125.626 58.5143H120.236V64.0871H125.626V58.5143Z" fill="white"/>
<path d="M134.311 58.5143H128.921V64.0871H134.311V58.5143Z" fill="white"/>
<path d="M142.996 58.5143H137.605V64.0871H142.996V58.5143Z" fill="white"/>
<path d="M125.776 71.2079H120.386V76.7807H125.776V71.2079Z" fill="white"/>
<path d="M134.461 71.2079H129.07V76.7807H134.461V71.2079Z" fill="white"/>
<path d="M143.145 71.2079H137.755V76.7807H143.145V71.2079Z" fill="white"/>
<path d="M125.926 83.9015H120.535V89.4743H125.926V83.9015Z" fill="white"/>
<path d="M134.61 83.9015H129.22V89.4743H134.61V83.9015Z" fill="white"/>
<path d="M143.295 83.9015H137.905V89.4743H143.295V83.9015Z" fill="white"/>
<path d="M126.076 96.5951H120.685V102.168H126.076V96.5951Z" fill="white"/>
<path d="M134.76 96.5951H129.37V102.168H134.76V96.5951Z" fill="white"/>
<path d="M143.445 96.5951H138.054V102.168H143.445V96.5951Z" fill="white"/>
<path d="M126.225 109.289H120.835V114.861H126.225V109.289Z" fill="white"/>
<path d="M134.91 109.289H129.52V114.861H134.91V109.289Z" fill="white"/>
<path d="M143.595 109.289H138.204V114.861H143.595V109.289Z" fill="white"/>
<path d="M126.375 121.982H120.985V127.555H126.375V121.982Z" fill="white"/>
<path d="M135.06 121.982H129.669V127.555H135.06V121.982Z" fill="white"/>
<path d="M135.06 136.843H129.669V147.369H135.06V136.843Z" fill="white"/>
<path d="M143.744 121.982H138.354V127.555H143.744V121.982Z" fill="white"/>
<path d="M151.53 12.384H149.135V22.9104H151.53V12.384Z" fill="#3F3D56"/>
<path d="M194.354 67.4927H190.162V73.915H194.354V67.4927Z" fill="#24B790"/>
<path d="M194.055 73.3645H158.418V147.679H194.055V73.3645Z" fill="#24B790"/>
<path d="M208.429 73.3645H194.055V147.679H208.429V73.3645Z" fill="#3F3D56"/>
<path d="M170.846 83.9015H165.456V89.4743H170.846V83.9015Z" fill="white"/>
<path d="M179.531 83.9015H174.14V89.4743H179.531V83.9015Z" fill="white"/>
<path d="M188.215 83.9015H182.825V89.4743H188.215V83.9015Z" fill="white"/>
<path d="M170.996 96.5951H165.605V102.168H170.996V96.5951Z" fill="white"/>
<path d="M179.68 96.5951H174.29V102.168H179.68V96.5951Z" fill="white"/>
<path d="M188.365 96.5951H182.974V102.168H188.365V96.5951Z" fill="white"/>
<path d="M171.146 109.289H165.755V114.861H171.146V109.289Z" fill="white"/>
<path d="M179.83 109.289H174.44V114.861H179.83V109.289Z" fill="white"/>
<path d="M188.514 109.289H183.124V114.861H188.514V109.289Z" fill="white"/>
<path d="M171.295 121.982H165.905V127.555H171.295V121.982Z" fill="white"/>
<path d="M179.98 121.982H174.589V127.555H179.98V121.982Z" fill="white"/>
<path d="M179.98 136.843H174.589V147.369H179.98V136.843Z" fill="white"/>
<path d="M188.664 121.982H183.274V127.555H188.664V121.982Z" fill="white"/>
<path d="M196.45 67.4927H194.055V73.7315H196.45V67.4927Z" fill="#3F3D56"/>
<path d="M266 147.305H0.072998V147.999H266V147.305Z" fill="#3F3D56"/>
<path d="M219.408 133.153C223.715 133.153 227.206 129.543 227.206 125.091C227.206 120.638 223.715 117.029 219.408 117.029C215.101 117.029 211.609 120.638 211.609 125.091C211.609 129.543 215.101 133.153 219.408 133.153Z" fill="#24B790"/>
<path opacity="0.2" d="M225.209 119.706C225.936 121.465 226.035 123.434 225.487 125.262C224.939 127.089 223.781 128.655 222.219 129.681C220.657 130.707 218.793 131.125 216.96 130.861C215.127 130.596 213.445 129.667 212.214 128.239C212.659 129.313 213.324 130.275 214.163 131.058C215.003 131.841 215.997 132.425 217.077 132.771C218.157 133.117 219.297 133.216 220.417 133.062C221.538 132.907 222.613 132.502 223.567 131.876C224.521 131.249 225.333 130.415 225.944 129.432C226.556 128.449 226.954 127.341 227.11 126.183C227.266 125.026 227.177 123.847 226.849 122.728C226.52 121.61 225.961 120.579 225.209 119.706Z" fill="black"/>
<path d="M219.429 125.091H219.451L219.836 147.948H219.022L219.429 125.091Z" fill="#3F3D56"/>
<path d="M220.849 137.541L220.669 137.188L219.38 137.89L219.56 138.243L220.849 137.541Z" fill="#3F3D56"/>
<path d="M242.335 125.449C248.884 125.449 254.193 119.96 254.193 113.189C254.193 106.418 248.884 100.929 242.335 100.929C235.785 100.929 230.476 106.418 230.476 113.189C230.476 119.96 235.785 125.449 242.335 125.449Z" fill="#24B790"/>
<path opacity="0.2" d="M251.156 105.001C252.262 107.676 252.412 110.67 251.579 113.449C250.746 116.228 248.985 118.61 246.609 120.17C244.234 121.73 241.399 122.365 238.612 121.964C235.825 121.562 233.267 120.148 231.396 117.976C232.071 119.611 233.083 121.073 234.359 122.264C235.636 123.454 237.148 124.343 238.79 124.869C240.433 125.395 242.166 125.546 243.87 125.31C245.574 125.075 247.208 124.46 248.659 123.507C250.111 122.554 251.344 121.286 252.274 119.791C253.205 118.297 253.809 116.611 254.047 114.851C254.284 113.09 254.149 111.298 253.649 109.597C253.15 107.896 252.299 106.328 251.156 105.001Z" fill="black"/>
<path d="M242.367 113.189H242.4L242.986 147.948H241.748L242.367 113.189Z" fill="#3F3D56"/>
<path d="M244.526 132.122L244.253 131.586L242.293 132.653L242.566 133.189L244.526 132.122Z" fill="#3F3D56"/>
<path d="M7.9836 132.843C12.2905 132.843 15.7819 129.234 15.7819 124.781C15.7819 120.329 12.2905 116.719 7.9836 116.719C3.67672 116.719 0.185303 120.329 0.185303 124.781C0.185303 129.234 3.67672 132.843 7.9836 132.843Z" fill="#24B790"/>
<path opacity="0.2" d="M13.7845 119.396C14.5119 121.155 14.6106 123.125 14.0629 124.952C13.5152 126.779 12.3569 128.346 10.7948 129.372C9.23281 130.397 7.36888 130.815 5.53613 130.551C3.70338 130.287 2.02124 129.357 0.790283 127.929C1.23464 129.004 1.89969 129.966 2.73937 130.748C3.57906 131.531 4.57328 132.116 5.65318 132.462C6.73307 132.808 7.87281 132.907 8.99342 132.752C10.114 132.597 11.1887 132.193 12.1431 131.566C13.0974 130.939 13.9085 130.106 14.5202 129.123C15.132 128.14 15.5297 127.031 15.6858 125.874C15.842 124.716 15.7528 123.537 15.4245 122.419C15.0962 121.3 14.5366 120.269 13.7845 119.396Z" fill="black"/>
<path d="M8.00512 124.781H8.02668L8.4121 147.639H7.59814L8.00512 124.781Z" fill="#3F3D56"/>
<path d="M9.42501 137.232L9.24536 136.879L7.95627 137.58L8.13592 137.933L9.42501 137.232Z" fill="#3F3D56"/>
<path d="M181.601 11.5592L184.358 9.2797C182.216 9.03542 181.336 10.2429 180.976 11.1987C179.303 10.4804 177.481 11.4218 177.481 11.4218L182.997 13.492C182.719 12.7236 182.235 12.0531 181.601 11.5592Z" fill="#3F3D56"/>
<path d="M43.2472 23.0144L46.004 20.7349C43.8623 20.4906 42.9824 21.6981 42.6222 22.6539C40.9491 21.9356 39.1277 22.8769 39.1277 22.8769L44.6435 24.9471C44.3653 24.1788 43.8809 23.5083 43.2472 23.0144Z" fill="#3F3D56"/>
<path d="M223.526 34.7792L226.283 32.4997C224.142 32.2554 223.262 33.4629 222.902 34.4187C221.228 33.7004 219.407 34.6417 219.407 34.6417L224.923 36.7119C224.645 35.9435 224.16 35.2731 223.526 34.7792Z" fill="#3F3D56"/>
<path d="M66.0067 16.8224L68.7635 14.5429C66.6218 14.2986 65.7419 15.5061 65.3817 16.4619C63.7086 15.7436 61.8872 16.685 61.8872 16.685L67.4031 18.7552C67.1248 17.9868 66.6404 17.3163 66.0067 16.8224Z" fill="#3F3D56"/>
<path d="M71.0975 41.5904L73.8543 39.3109C71.7127 39.0666 70.8327 40.2741 70.4726 41.2299C68.7994 40.5116 66.978 41.4529 66.978 41.4529L72.4939 43.5231C72.2156 42.7547 71.7312 42.0843 71.0975 41.5904Z" fill="#3F3D56"/>
<path d="M178.307 54.5936L181.064 52.314C178.922 52.0698 178.042 53.2773 177.682 54.2331C176.009 53.5148 174.188 54.4561 174.188 54.4561L179.703 56.5263C179.425 55.7579 178.941 55.0875 178.307 54.5936Z" fill="#3F3D56"/>
<path d="M31.7435 141.177H13.1765V141.797H16.0721V147.679H16.671V141.797H27.9495V147.679H28.5485V141.797H31.7435V141.177Z" fill="#3F3D56"/>
<path d="M50.6101 143.654C49.8772 143.654 49.1573 143.854 48.5229 144.233C47.8786 143.631 47.0791 143.235 46.2213 143.093C45.3635 142.951 44.4844 143.07 43.6907 143.435C42.897 143.8 42.2228 144.395 41.75 145.149C41.2772 145.902 41.026 146.781 41.0271 147.679H54.7875C54.7125 146.586 54.2398 145.564 53.4647 144.817C52.6896 144.07 51.6696 143.655 50.6101 143.654Z" fill="#3F3D56"/>
<path d="M121.584 143.654C120.851 143.654 120.131 143.854 119.497 144.233C118.852 143.631 118.053 143.235 117.195 143.093C116.337 142.951 115.458 143.07 114.664 143.435C113.871 143.8 113.196 144.395 112.724 145.149C112.251 145.902 112 146.781 112.001 147.679H125.761C125.686 146.586 125.213 145.564 124.438 144.817C123.663 144.07 122.643 143.655 121.584 143.654Z" fill="#3F3D56"/>
<path d="M168.001 143.654C167.268 143.654 166.548 143.854 165.914 144.233C165.27 143.631 164.47 143.235 163.612 143.093C162.755 142.951 161.876 143.07 161.082 143.435C160.288 143.8 159.614 144.395 159.141 145.149C158.668 145.902 158.417 146.781 158.418 147.679H172.179C172.104 146.586 171.631 145.564 170.856 144.817C170.081 144.07 169.061 143.655 168.001 143.654Z" fill="#3F3D56"/>
<path d="M229.092 143.654C228.36 143.654 227.64 143.854 227.005 144.233C226.361 143.631 225.561 143.235 224.704 143.093C223.846 142.951 222.967 143.07 222.173 143.435C221.379 143.8 220.705 144.395 220.232 145.149C219.76 145.902 219.508 146.781 219.51 147.679H233.27C233.195 146.586 232.722 145.564 231.947 144.817C231.172 144.07 230.152 143.655 229.092 143.654Z" fill="#3F3D56"/>
<path d="M258.44 143.654C257.707 143.654 256.987 143.854 256.353 144.233C255.709 143.631 254.909 143.235 254.051 143.093C253.194 142.951 252.315 143.07 251.521 143.435C250.727 143.8 250.053 144.395 249.58 145.149C249.107 145.902 248.856 146.781 248.857 147.679H262.618C262.543 146.586 262.07 145.564 261.295 144.817C260.52 144.07 259.5 143.655 258.44 143.654Z" fill="#3F3D56"/>
<path d="M38.6313 126.007H33.8398V130.961H36.061V147.652H36.6599V130.961H38.6313V126.007Z" fill="#3F3D56"/>
<path d="M31.7801 139.325H13.2131V139.944H31.7801V139.325Z" fill="#3F3D56"/>
<path d="M31.7801 137.777H13.2131V138.396H31.7801V137.777Z" fill="#3F3D56"/>
<path d="M31.7801 136.229H13.2131V136.848H31.7801V136.229Z" fill="#3F3D56"/>
</svg>
