<svg width="71" height="79" viewBox="0 0 71 79" fill="none" xmlns="http://www.w3.org/2000/svg">
<path d="M32.2074 1.10916C22.2328 2.81728 14.8011 10.3754 13.3026 20.3369C13.1966 20.9869 13.1361 23.9951 13.1361 27.8195C13.1361 33.9113 13.1512 34.2438 13.454 34.8938C13.9232 35.9368 14.4529 36.5264 15.3459 37.0252L16.1633 37.4938V38.8694C16.1633 40.0182 16.2238 40.3961 16.5266 41.031C17.3136 42.724 18.8121 43.6612 20.7343 43.6612H21.8847L22.5053 44.7949C22.8534 45.4298 23.5799 46.4728 24.1097 47.1379L25.0935 48.3472L23.8221 50.8867L22.5507 53.4112L18.4942 54.7565C12.3944 56.7821 10.1846 58.0367 7.23308 61.1506C3.4945 65.096 1.31492 70.1599 1.07275 75.4052L0.981934 77.4459L1.40574 77.854L1.82955 78.2773H69.8505L70.2743 77.854L70.6981 77.4459L70.6073 75.4052C70.3651 70.1599 68.1855 65.096 64.447 61.1506C61.4955 58.0367 59.2856 56.7821 53.1858 54.7565L49.1294 53.4112L47.858 50.8716L46.5865 48.3472L47.3131 47.4554C49.2051 45.1879 50.3554 42.7089 50.9608 39.6101L51.3544 37.6147H53.2464C54.9113 37.6147 55.2292 37.5694 55.9103 37.2519C56.8941 36.7985 57.7266 35.9671 58.1807 34.9845L58.5439 34.2136V27.8195C58.5439 24.0102 58.4834 20.9869 58.3774 20.3369C57.6509 15.4695 55.547 11.2219 52.1263 7.71493C48.6148 4.10216 44.1194 1.8045 39.064 1.04869C37.6261 0.821948 33.6302 0.867296 32.2074 1.10916ZM39.1094 4.28355C46.7984 5.62889 52.9134 11.3277 54.8356 18.9463C55.0173 19.6869 55.2292 20.6997 55.2897 21.1683L55.3805 22.0451H52.535L52.4442 20.7148C52.2928 18.4323 51.3544 15.787 49.977 13.7009C47.9791 10.723 44.9821 8.5312 41.3646 7.42772C40.0175 7.01958 39.9419 7.00447 35.84 7.00447C31.7382 7.00447 31.6625 7.01958 30.3154 7.42772C26.6979 8.5312 23.701 10.723 21.703 13.7009C20.3257 15.787 19.3872 18.4323 19.2359 20.7148L19.1451 22.0451H17.7374C16.693 22.0451 16.3146 21.9997 16.3146 21.8486C16.3449 20.3974 17.2531 17.1474 18.1612 15.2126C19.1602 13.0963 20.25 11.5847 22.0512 9.78584C25.154 6.67191 28.7413 4.87308 33.2669 4.16262C34.2962 3.99635 37.8834 4.07193 39.1094 4.28355ZM39.8359 10.3451C41.183 10.6475 43.6653 11.8416 44.8005 12.7335C46.7076 14.2451 48.3877 16.8905 49.0083 19.3846C49.3716 20.8509 49.4321 23.4055 49.0991 23.4055C48.9932 23.4055 48.1001 23.2695 47.1314 23.1032C42.515 22.302 38.1861 20.2009 34.7805 17.1172L33.4939 15.9532L31.829 16.0439C28.605 16.2102 25.5173 17.5707 23.2318 19.8683C22.2328 20.8509 22.2479 20.8811 22.8534 18.7951C24.2005 14.1091 28.4385 10.6172 33.4031 10.0882C35.0075 9.92189 38.5494 10.0579 39.8359 10.3451ZM32.6009 19.4904C33.1458 20.1102 35.4919 21.8486 36.9601 22.7102C39.9267 24.4788 43.181 25.6578 46.7228 26.2625C47.752 26.4439 48.7661 26.5799 48.9629 26.5799C49.311 26.5799 49.3262 26.6253 49.2505 27.1392C49.2051 27.4567 49.1294 28.4241 49.084 29.3008C48.9023 32.3392 48.1607 37.7508 47.6309 39.9577C47.2374 41.5147 46.0416 43.9182 45.0275 45.1728C42.7269 47.9996 39.5181 49.5565 35.9914 49.5868C33.4637 49.6019 31.602 49.0879 29.5586 47.7728C28.378 47.017 26.7736 45.4752 26.0168 44.3717L25.5324 43.6612H28.3931L28.8624 44.4775C29.3618 45.3693 29.9521 45.8984 30.9965 46.367C31.602 46.6391 31.9955 46.6844 34.3264 46.6844C36.7936 46.6844 37.0206 46.6542 37.7472 46.3217C39.4424 45.5356 40.3808 44.0391 40.3808 42.1496C40.3808 40.2601 39.4424 38.7636 37.7472 37.9775C37.0206 37.645 36.7936 37.6147 34.3264 37.6147C31.9955 37.6147 31.602 37.6601 30.9965 37.9322C29.9521 38.4008 29.3618 38.9298 28.8624 39.8217L28.3931 40.638H24.2005L24.034 40.0484C23.5799 38.3554 22.7777 31.9462 22.4447 27.3357L22.3539 26.0357L23.5496 24.4637C25.7595 21.5311 27.5909 20.1404 30.1035 19.4753C31.6171 19.0823 32.2377 19.0974 32.6009 19.4904ZM19.251 27.0636C19.357 29.0439 19.7202 33.352 19.8716 34.1985L19.9473 34.6217L18.6153 34.5613C16.2238 34.4403 16.2541 34.5008 16.1936 29.2555L16.1482 25.0683H19.1451L19.251 27.0636ZM55.4865 29.2555C55.4259 34.5008 55.4562 34.4403 53.0647 34.5613L51.7328 34.6217L51.8084 34.1985C51.9447 33.352 52.3231 29.059 52.429 27.0636L52.5198 25.0683H55.5319L55.4865 29.2555ZM20.5224 38.6275C20.6133 39.2019 20.7343 39.8671 20.7949 40.124C20.8857 40.5775 20.8554 40.5926 20.4922 40.5322C19.6597 40.3659 19.1905 39.5345 19.1905 38.2043C19.1905 37.6147 19.1905 37.6147 19.7808 37.6147H20.3559L20.5224 38.6275ZM35.9762 40.7287C37.5958 41.0612 37.5958 43.238 35.9762 43.5705C35.3557 43.6914 33.2972 43.6914 32.6766 43.5705C31.5263 43.3287 31.0419 41.9984 31.8441 41.1973C32.056 40.9856 32.3739 40.774 32.5555 40.7438C33.1004 40.638 35.4616 40.638 35.9762 40.7287ZM46.1173 54.8623C46.1325 55.21 44.7854 58.5658 43.8015 60.6669L42.9388 62.4657L40.4565 59.9867L37.9591 57.5076L38.4585 56.9635C38.731 56.6762 40.1386 55.1797 41.5917 53.6681L44.2253 50.8867L45.1638 52.7612C45.6935 53.7739 46.1173 54.7263 46.1173 54.8623ZM30.3457 54.5751L33.4031 57.6437L31.0722 60.0623L28.7564 62.4809L27.8937 60.6669C26.9704 58.732 25.5476 55.2251 25.5476 54.8925C25.5476 54.6658 27.0914 51.5216 27.2125 51.5216C27.2579 51.5216 28.6656 52.8972 30.3457 54.5751ZM36.0217 52.7763H37.9439L36.8693 53.9251C36.279 54.56 35.7643 55.0891 35.7038 55.1193C35.6584 55.1344 35.0227 54.56 34.3264 53.8495C33.0701 52.5798 33.055 52.5495 33.5696 52.6705C33.8572 52.7309 34.9621 52.7763 36.0217 52.7763ZM23.5042 58.6565C25.1238 62.7227 27.3185 66.6983 30.8603 71.9587C31.6625 73.1529 32.4647 74.3773 32.6463 74.6796L32.9945 75.254H18.6002C6.52169 75.254 4.20589 75.2238 4.20589 75.0424C4.20589 74.4831 4.70538 72.1099 5.0535 70.9913C6.55196 66.275 9.80619 62.2239 13.9686 59.896C14.9221 59.3669 21.9452 56.8425 22.5355 56.8274C22.702 56.8123 22.9896 57.3716 23.5042 58.6565ZM52.8831 58.0216C54.9265 58.7169 57.0001 59.5181 57.6358 59.8658C61.8133 62.1483 65.1129 66.2448 66.6265 70.9913C66.9747 72.1099 67.4742 74.4831 67.4742 75.0424C67.4742 75.2238 65.1584 75.254 53.0799 75.254H38.6856L39.0337 74.6796C39.2153 74.3773 40.0175 73.1529 40.8198 71.9587C44.3162 66.7739 46.6017 62.6471 48.1758 58.6565C48.5845 57.6437 48.9932 56.8123 49.084 56.8123C49.1748 56.8123 50.8852 57.3565 52.8831 58.0216ZM38.4888 62.7076L41.2133 65.4285L40.9408 65.9274C40.7895 66.1994 40.1235 67.2122 39.4727 68.1646C38.8218 69.1169 37.7472 70.7192 37.1114 71.732C36.4757 72.7599 35.9006 73.5913 35.8552 73.5913C35.8098 73.5913 35.2346 72.7599 34.5837 71.732C33.9329 70.7192 32.7523 68.9355 31.9652 67.7866C31.1782 66.6378 30.5424 65.5948 30.5424 65.489C30.5424 65.3076 35.4919 59.9867 35.6735 59.9867C35.7189 59.9867 36.9904 61.2111 38.4888 62.7076Z" fill="#16DB32"/>
<path d="M51.3695 61.1355C51.0516 61.453 50.9759 61.6797 50.9759 62.2541C50.9759 62.8285 51.0516 63.0553 51.3695 63.3727C51.6873 63.6902 51.9144 63.7658 52.4895 63.7658C53.4885 63.7658 54.0031 63.2518 54.0031 62.2541C54.0031 61.6797 53.9274 61.453 53.6096 61.1355C53.0344 60.5762 51.9446 60.5762 51.3695 61.1355Z" fill="#16DB32"/>
<path d="M56.7124 64.0529C56.3643 64.4006 56.2735 64.6273 56.2735 65.1262C56.2735 65.7308 56.3643 65.8518 57.5449 67.0762C59.0585 68.618 59.2552 68.8448 59.9818 70.0843C60.6023 71.1424 60.8445 71.3238 61.7224 71.3238C62.5246 71.3238 63.236 70.6587 63.236 69.8878C63.236 68.6634 60.4661 64.9297 58.7709 63.8866C58.0595 63.4634 57.2422 63.5239 56.7124 64.0529Z" fill="#16DB32"/>
</svg>
