<svg width="60" height="58" viewBox="0 0 60 58" fill="none" xmlns="http://www.w3.org/2000/svg">
<path d="M3.88076 0.891918C2.57964 1.36018 1.48952 2.34352 0.797931 3.65464C-0.0577581 5.27013 0.00085076 3.9356 0.00085076 23.5439C0.00085076 43.1523 -0.0577581 41.8177 0.797931 43.4332C1.50124 44.7677 2.60308 45.7394 3.96281 46.2076C4.5489 46.4066 4.99432 46.4301 8.8039 46.4301H13.0003L13.3051 46.1608C13.5395 45.9735 13.6333 45.7511 13.6802 45.3648C13.7388 44.8848 13.7036 44.7794 13.3871 44.4283L13.0355 44.0302L8.88595 43.9717C4.83022 43.9132 4.73645 43.9132 4.31446 43.6439C3.71665 43.281 3.18917 42.6372 2.8258 41.8645L2.52103 41.2207L2.48587 29.9474L2.46242 18.6857H27.8987H53.3349V24.5975V30.5093H52.8074C52.1745 30.5093 51.6587 30.7083 51.1429 31.1414L50.7678 31.4575L49.7363 31.0478L48.7048 30.638L48.6345 30.0644C48.529 29.2801 48.2359 28.7065 47.685 28.2382C47.0169 27.6646 46.4659 27.5475 44.5905 27.6061C43.0549 27.6412 42.926 27.6646 42.3985 27.969C41.6717 28.4021 41.1443 29.2801 41.1443 30.0761C41.1443 30.5678 41.1091 30.6497 40.8278 30.7668C40.6402 30.8371 40.1714 31.0361 39.7728 31.2234C39.0695 31.5394 39.0461 31.5394 38.8468 31.317C38.2138 30.6146 36.7017 30.3103 35.7757 30.6849C35.2599 30.9073 33.2438 32.8506 32.939 33.4359C32.4467 34.4075 32.5639 35.5313 33.2555 36.4444L33.6541 36.9712L33.2438 37.9195L32.8335 38.8794L32.2592 38.9496C31.4855 39.055 30.9112 39.3359 30.4306 39.8744C29.8914 40.4715 29.7741 40.9514 29.7741 42.5903V43.9717H26.2576C22.366 43.9717 22.2136 43.9951 21.8502 44.6858C21.6275 45.1189 21.7096 45.6926 22.0261 46.1023L22.2488 46.3715L27.547 46.4301L32.8335 46.4886L33.2438 47.5071L33.6658 48.5372L33.3376 48.9118C32.8687 49.4737 32.7046 49.9654 32.7046 50.7615C32.7046 51.7448 32.939 52.1311 34.3691 53.5242C35.4826 54.6129 35.635 54.7299 36.2328 54.8587C37.1003 55.046 37.8973 54.8704 38.6241 54.3202C39.1398 53.9222 39.1516 53.9105 39.5267 54.1095C39.7377 54.2149 40.1714 54.3905 40.4878 54.5075L41.0857 54.7065L41.156 55.3621C41.2498 56.1933 41.7069 56.9893 42.3399 57.4107C42.8088 57.7151 42.8908 57.7268 44.696 57.7619C46.8645 57.8087 47.3334 57.6917 47.9546 57.001C48.4352 56.4508 48.6462 55.924 48.6462 55.3036V54.8002L49.7129 54.3436L50.7796 53.8988L51.0843 54.1914C51.6587 54.7182 52.1627 54.9055 52.995 54.9055C53.6045 54.9055 53.8624 54.847 54.2844 54.6012C54.8939 54.2383 56.617 52.5057 56.8866 51.9789C57.3672 51.0424 57.2265 49.8132 56.5584 49.0289L56.1599 48.5723L56.5936 47.4953L57.0155 46.4301H57.5547C58.5863 46.4184 59.6178 45.6691 59.8991 44.7092C59.9812 44.4283 60.0163 43.562 59.9929 42.4382C59.9577 40.6354 59.9577 40.6119 59.6178 40.1203C59.1723 39.4881 58.4339 39.055 57.6368 38.973L57.0155 38.9145L56.5936 37.9195L56.1716 36.9244L56.5701 36.4093C57.0507 35.7772 57.25 35.0865 57.1679 34.349C57.0859 33.67 56.8983 33.2954 56.2771 32.593L55.7965 32.0545V19.1891C55.7965 8.30211 55.7613 6.20665 55.6207 5.51597C55.2104 3.5727 54.0148 1.9455 52.4206 1.16117L51.5298 0.71632L28.0276 0.692905C4.93572 0.669495 4.50201 0.669495 3.88076 0.891918ZM51.4243 3.46734C52.1276 3.86536 52.4909 4.2985 52.9481 5.28184L53.2763 5.98423L53.3115 11.1L53.3466 16.2274H27.8987H2.4507L2.48587 11.0414L2.52103 5.86716L2.86096 5.14137C3.22434 4.35703 3.96281 3.56099 4.60751 3.29174C4.92399 3.15126 8.60463 3.12785 27.8987 3.11615H50.8147L51.4243 3.46734ZM46.1846 31.0946C46.2667 32.5462 46.2667 32.5462 48.0015 33.0847C48.4586 33.2252 49.2088 33.5529 49.6777 33.7988C50.9437 34.4778 51.3305 34.4426 52.2682 33.5881L52.995 32.9325L53.8741 33.7988L54.7415 34.6534L54.1672 35.2504C53.1474 36.2923 53.1239 36.5381 53.8507 37.978C54.132 38.5516 54.4836 39.4062 54.6243 39.8861C55.0111 41.1504 55.2104 41.326 56.4763 41.3963L57.4961 41.4548L57.5313 42.7074L57.5665 43.9717H56.6522C55.2338 43.9717 55.0463 44.1473 54.554 45.7745C54.4368 46.1608 54.1203 46.91 53.8389 47.4485C53.1239 48.8299 53.1474 49.064 54.0499 50.0122L54.7767 50.7497L53.9796 51.5809C53.5342 52.0258 53.1005 52.4004 53.0067 52.4004C52.9129 52.4004 52.5261 52.1077 52.151 51.7565C51.307 50.9605 50.9554 50.9136 49.877 51.5107C49.4902 51.7331 48.611 52.1077 47.9429 52.3301C46.3253 52.8803 46.255 52.9623 46.1963 54.2851L46.1612 55.3387L44.907 55.3036L43.6644 55.2684L43.6058 54.25C43.5355 52.9857 43.3597 52.7867 42.1054 52.4121C41.6366 52.2716 40.7926 51.9204 40.2417 51.6394C38.7999 50.8902 38.5186 50.9136 37.5808 51.815L36.8541 52.5057L36.0101 51.6629C35.5413 51.1946 35.1662 50.7615 35.1662 50.7029C35.1662 50.6444 35.4592 50.2932 35.8226 49.9303C36.6783 49.0757 36.7017 48.7362 36.0101 47.4836C35.7523 47.0037 35.4006 46.1491 35.2248 45.5872C34.7911 44.2058 34.6152 44.0536 33.3141 43.9717L32.2943 43.9132V42.684V41.4548L33.3024 41.4197C34.5918 41.3729 34.8028 41.209 35.1662 39.9798C35.3068 39.4998 35.6585 38.6453 35.9398 38.0834C36.6548 36.6435 36.6431 36.3508 35.8109 35.4494C35.4592 35.0631 35.1662 34.7002 35.1662 34.6417C35.1662 34.5831 35.5295 34.1734 35.975 33.7403L36.7955 32.9325L37.4988 33.5881C38.5069 34.5129 38.7061 34.5363 40.1596 33.8105C40.7926 33.4827 41.6952 33.1081 42.1523 32.9793C43.3245 32.6398 43.5355 32.3823 43.5824 31.2351C43.6058 30.7434 43.641 30.2634 43.6644 30.1815C43.7113 30.0761 44.0278 30.041 44.9187 30.0644L46.126 30.0995L46.1846 31.0946Z" fill="#16DB32"/>
<path d="M9.48367 5.96083C8.21772 6.49933 7.42064 7.41243 7.08071 8.72356C6.62356 10.5498 7.50269 12.4696 9.20235 13.3125C9.70638 13.5583 9.95254 13.5934 10.9606 13.5934C11.9452 13.5934 12.2266 13.5466 12.672 13.3242C13.5394 12.9028 14.1372 12.3057 14.5592 11.4512C14.9108 10.7488 14.946 10.5732 14.946 9.67178C14.9343 8.89915 14.8757 8.54796 14.6764 8.10311C14.2779 7.22513 13.6918 6.59298 12.8713 6.15984C12.2266 5.80865 12.0038 5.76182 11.1364 5.7267C10.2925 5.69158 10.0346 5.7267 9.48367 5.96083ZM11.7342 8.41919C11.957 8.55967 12.2266 8.88745 12.3555 9.13328C12.6251 9.69519 12.4844 10.2688 11.957 10.7839C11.6405 11.0883 11.4998 11.1351 10.9606 11.1351C10.4214 11.1351 10.2807 11.0883 9.97598 10.7956C9.54228 10.3742 9.35473 9.80055 9.49539 9.30888C9.62433 8.86403 9.80016 8.64161 10.2573 8.36066C10.7262 8.0797 11.2537 8.09141 11.7342 8.41919Z" fill="#16DB32"/>
<path d="M19.9279 5.89056C18.873 6.25346 18.1579 6.90903 17.5718 8.03285C17.3374 8.47769 17.3022 8.73523 17.2905 9.67175C17.2905 11.018 17.5367 11.6267 18.4627 12.5515C19.3067 13.3944 20.1272 13.6871 21.4518 13.6285C22.6239 13.57 23.339 13.2656 24.1243 12.4696C26.5976 9.96441 24.769 5.66814 21.2408 5.69155C20.8071 5.70326 20.221 5.78521 19.9279 5.89056ZM21.9323 8.32551C22.6943 8.72353 22.999 9.90588 22.495 10.538C21.7565 11.4745 20.3734 11.3575 19.881 10.3273C19.6466 9.83564 19.6466 9.51957 19.8576 9.10984C20.303 8.25527 21.1587 7.92749 21.9323 8.32551Z" fill="#16DB32"/>
<path d="M33.9119 5.85547C32.7983 6.20667 31.8254 7.13148 31.4034 8.2553C31.0752 9.14499 31.1221 10.6434 31.5206 11.4277C31.884 12.1418 32.6342 12.9028 33.3492 13.2774L33.9353 13.5934L40.1479 13.6286C47.0637 13.6637 46.9934 13.6754 48.0835 12.8794C49.2088 12.0482 49.8652 10.421 49.6073 9.06304C49.3495 7.68168 48.5641 6.6281 47.3568 6.05448L46.7121 5.75011L40.5581 5.7267C35.7405 5.71499 34.2987 5.73841 33.9119 5.85547ZM46.3018 8.32554C47.4271 8.89915 47.4271 10.4444 46.3018 11.018C46.0205 11.1702 45.0827 11.1936 40.3823 11.1936C34.2284 11.1936 34.3339 11.2053 33.8767 10.4561C33.4196 9.7069 33.7243 8.65332 34.498 8.32554C35.0723 8.06799 45.8095 8.06799 46.3018 8.32554Z" fill="#16DB32"/>
<path d="M43.3713 35.6016C42.0819 35.8943 40.7456 36.6318 39.7962 37.5917C36.7485 40.6237 36.9712 45.5521 40.2885 48.3148C41.027 48.9353 42.5391 49.6611 43.4651 49.8367C44.4614 50.024 46.2783 49.9186 47.2512 49.6025C49.2674 48.9704 51.0491 47.2027 51.7758 45.1424C52.1744 43.9834 52.2798 42.1572 51.9985 41.0451C51.3773 38.5867 49.5252 36.5732 47.1809 35.824C45.997 35.4494 44.4497 35.3558 43.3713 35.6016ZM45.7274 38.0014C47.2395 38.2824 48.5054 39.254 49.197 40.6705C49.619 41.5134 49.6425 41.6187 49.6425 42.6723C49.6307 44.2527 49.3494 44.9316 48.2476 46.0321C47.1457 47.1325 46.4659 47.4134 44.8951 47.4251C43.8871 47.4251 43.7112 47.39 42.9962 47.0505C40.9918 46.1023 39.8313 44.0068 40.1947 42.005C40.5698 40.0032 41.9412 38.5399 43.8988 38.0482C44.649 37.8609 44.9537 37.8609 45.7274 38.0014Z" fill="#16DB32"/>
<path d="M18.2282 25.5106C17.9469 25.7447 17.7945 26.2715 16.7044 30.8605C16.0246 33.6583 15.4736 36.1284 15.4736 36.3391C15.4736 37.498 17.396 37.8609 17.818 36.7839C17.8766 36.6317 18.451 34.2787 19.1074 31.5511C20.3851 26.2247 20.4085 25.9789 19.8693 25.4989C19.4473 25.1477 18.6502 25.1477 18.2282 25.5106Z" fill="#16DB32"/>
<path d="M10.8317 26.1662C10.5035 26.3066 7.33862 29.7601 6.90491 30.4507C6.58843 30.9658 6.60015 31.9023 6.94008 32.3355C7.61994 33.2018 10.3628 36.2103 10.6442 36.3859C11.1599 36.7254 11.6874 36.6552 12.1445 36.1986C12.5783 35.7655 12.6603 35.2855 12.4024 34.8055C12.3321 34.6651 11.6405 33.8573 10.8786 33.0027C10.1167 32.1599 9.49542 31.4107 9.49542 31.3521C9.49542 31.2936 10.105 30.5678 10.8552 29.7366C12.3907 28.0158 12.6134 27.6646 12.4962 27.091C12.3673 26.3652 11.4998 25.8852 10.8317 26.1662Z" fill="#16DB32"/>
<path d="M23.9601 26.1662C23.5381 26.3535 23.2099 26.8686 23.2099 27.3603C23.2099 27.8402 23.1513 27.77 25.5895 30.4976C25.9528 30.919 26.2576 31.3053 26.2576 31.3522C26.2576 31.399 25.6363 32.1365 24.8744 32.9911C24.1008 33.8456 23.4209 34.6651 23.3506 34.8056C22.788 35.8474 24.0187 37.0298 25.0385 36.4445C25.3316 36.2806 28.5433 32.7101 28.8481 32.2067C29.106 31.8087 29.1411 30.9307 28.9184 30.5561C28.7661 30.2752 25.7653 26.8803 25.2847 26.4354C24.9682 26.1428 24.3352 26.014 23.9601 26.1662Z" fill="#16DB32"/>
<path d="M17.185 44.1473C16.6927 44.4048 16.5403 44.6741 16.5286 45.236C16.5286 45.9618 16.9974 46.4301 17.7476 46.4301C18.4744 46.4301 18.8729 46.0789 18.955 45.3648C19.0136 44.8965 18.9784 44.7794 18.6854 44.4517C18.2751 43.9951 17.6773 43.878 17.185 44.1473Z" fill="#16DB32"/>
</svg>
