<svg width="50" height="51" viewBox="0 0 50 51" fill="none" xmlns="http://www.w3.org/2000/svg">
<path d="M1.85708 1.00355C1.58371 1.10106 1.21272 1.36431 0.871019 1.70557C-0.0857509 2.67084 0.00211569 0.126034 0.00211569 25.7983C0.00211569 51.4706 -0.0857509 48.9258 0.871019 49.8911C1.82779 50.8466 -0.0271735 50.7589 19.7233 50.7589C39.4738 50.7589 37.6188 50.8466 38.5756 49.8911C39.5323 48.9258 39.4445 51.4706 39.4445 25.7983C39.4445 0.126034 39.5323 2.67084 38.5756 1.70557C37.6188 0.750046 39.4738 0.837799 19.6842 0.847549C4.07327 0.847549 2.2476 0.86705 1.85708 1.00355ZM36.9744 3.04135C37.1209 3.1486 37.2966 3.39235 37.365 3.57761C37.5309 4.05537 37.5309 47.5413 37.365 48.0191C37.2966 48.2043 37.1209 48.4481 36.9744 48.5553L36.7011 48.7601H19.7233H2.74551L2.47214 48.5553C2.3257 48.4481 2.1402 48.1848 2.07186 47.9801C1.97423 47.6973 1.95471 43.0855 1.97423 25.6033L2.00352 3.57761L2.20854 3.3046C2.31594 3.15835 2.56001 2.98285 2.74551 2.91459C2.99934 2.82684 7.02168 2.79759 19.8893 2.81709L36.7011 2.83659L36.9744 3.04135Z" fill="#16DB32"/>
<path d="M18.0246 8.6967C17.8196 8.90146 17.7708 9.04771 17.7708 9.41822C17.7708 9.78873 17.8196 9.93498 18.0246 10.1397L18.2882 10.3932H21.9591C26.0302 10.3932 25.9521 10.403 26.1669 9.75948C26.2548 9.50597 26.2548 9.33047 26.1669 9.07696C25.9521 8.43345 26.0302 8.4432 21.9591 8.4432H18.2882L18.0246 8.6967Z" fill="#16DB32"/>
<path d="M28.9884 8.72596C28.7639 8.95022 28.7053 9.09647 28.7053 9.41823C28.7053 9.73999 28.7639 9.88624 28.9884 10.1105L29.2716 10.3932H31.4682H33.6551L33.9187 10.1397C34.28 9.76924 34.28 9.06722 33.9187 8.69671L33.6551 8.44321H31.4682H29.2716L28.9884 8.72596Z" fill="#16DB32"/>
<path d="M12.2059 10.4712C12.0497 10.4907 11.2784 11.1927 10.1361 12.3238L8.31045 14.1276L7.51965 13.3865C6.77767 12.665 6.71909 12.6358 6.27975 12.6358C5.91853 12.6358 5.76232 12.6845 5.54753 12.899C5.32298 13.1135 5.27417 13.2403 5.27417 13.6498V14.1276L6.52383 15.3853L7.78325 16.6334H8.30069H8.81812L10.9562 14.5078C12.1375 13.3475 13.1919 12.275 13.2896 12.1288C13.5141 11.8168 13.5532 11.2025 13.3677 10.9002C13.1626 10.5687 12.6647 10.3835 12.2059 10.4712Z" fill="#16DB32"/>
<path d="M18.0246 14.9368C17.8196 15.1416 17.7708 15.2878 17.7708 15.6583C17.7708 16.0288 17.8196 16.1751 18.0246 16.3799L18.2882 16.6334H25.9716H33.6551L33.9187 16.3799C34.2799 16.0093 34.2799 15.3073 33.9187 14.9368L33.6551 14.6833H25.9716H18.2882L18.0246 14.9368Z" fill="#16DB32"/>
<path d="M5.52801 21.957C5.32298 22.1715 5.27417 22.308 5.27417 22.698V23.1855L6.56288 24.4921L7.84183 25.7986L6.56288 27.1051L5.27417 28.4116V28.8992C5.27417 29.5719 5.59635 29.8937 6.26999 29.8937H6.75814L8.06638 28.6066L9.37461 27.3294L10.6828 28.6066L11.9911 29.8937H12.4792C13.1529 29.8937 13.4751 29.5719 13.4751 28.8992V28.4116L12.1863 27.1051L10.9074 25.7986L12.1863 24.4921L13.4751 23.1855V22.698C13.4751 22.0253 13.1529 21.7035 12.4792 21.7035H11.9911L10.6828 22.9905L9.37461 24.2678L8.06638 22.9905L6.75814 21.7035H6.26999C5.87947 21.7035 5.74279 21.7523 5.52801 21.957Z" fill="#16DB32"/>
<path d="M18.0246 21.957C17.8196 22.1618 17.7708 22.308 17.7708 22.6785C17.7708 23.049 17.8196 23.1953 18.0246 23.4001L18.2882 23.6536H21.9591C26.0302 23.6536 25.9521 23.6633 26.1669 23.0198C26.2548 22.7663 26.2548 22.5908 26.1669 22.3373C25.9521 21.6938 26.0302 21.7035 21.9591 21.7035H18.2882L18.0246 21.957Z" fill="#16DB32"/>
<path d="M28.9884 21.9862C28.7639 22.2105 28.7053 22.3567 28.7053 22.6785C28.7053 23.0002 28.7639 23.1465 28.9884 23.3707L29.2716 23.6535H31.4682H33.6551L33.9187 23.4C34.28 23.0295 34.28 22.3275 33.9187 21.957L33.6551 21.7035H31.4682H29.2716L28.9884 21.9862Z" fill="#16DB32"/>
<path d="M18.0246 28.1971C17.8196 28.4019 17.7708 28.5481 17.7708 28.9187C17.7708 29.2892 17.8196 29.4354 18.0246 29.6402L18.2882 29.8937H25.9716H33.6551L33.9187 29.6402C34.2799 29.2697 34.2799 28.5676 33.9187 28.1971L33.6551 27.9436H25.9716H18.2882L18.0246 28.1971Z" fill="#16DB32"/>
<path d="M5.52801 35.2173C5.32298 35.4318 5.27417 35.5683 5.27417 35.9583V36.4458L6.56288 37.7523L7.84183 39.0588L6.56288 40.3654L5.27417 41.6719V42.1594C5.27417 42.8322 5.59635 43.1539 6.26999 43.1539H6.75814L8.06638 41.8669L9.37461 40.5896L10.6828 41.8669L11.9911 43.1539H12.4792C13.1529 43.1539 13.4751 42.8322 13.4751 42.1594V41.6719L12.1863 40.3654L10.9074 39.0588L12.1863 37.7523L13.4751 36.4458V35.9583C13.4751 35.2855 13.1529 34.9638 12.4792 34.9638H11.9911L10.6828 36.2508L9.37461 37.5281L8.06638 36.2508L6.75814 34.9638H6.26999C5.87947 34.9638 5.74279 35.0125 5.52801 35.2173Z" fill="#16DB32"/>
<path d="M18.0246 35.2173C17.8196 35.422 17.7708 35.5683 17.7708 35.9388C17.7708 36.3093 17.8196 36.4556 18.0246 36.6603L18.2882 36.9138H21.9591C26.0302 36.9138 25.9521 36.9236 26.1669 36.28C26.2548 36.0265 26.2548 35.851 26.1669 35.5975C25.9521 34.954 26.0302 34.9638 21.9591 34.9638H18.2882L18.0246 35.2173Z" fill="#16DB32"/>
<path d="M28.9884 35.2465C28.7639 35.4708 28.7053 35.617 28.7053 35.9388C28.7053 36.2606 28.7639 36.4068 28.9884 36.6311L29.2716 36.9138H31.4682H33.6551L33.9187 36.6603C34.28 36.2898 34.28 35.5878 33.9187 35.2173L33.6551 34.9638H31.4682H29.2716L28.9884 35.2465Z" fill="#16DB32"/>
<path d="M18.0246 41.4574C17.8196 41.6621 17.7708 41.8084 17.7708 42.1789C17.7708 42.5494 17.8196 42.6957 18.0246 42.9004L18.2882 43.1539H25.9716H33.6551L33.9187 42.9004C34.2799 42.5299 34.2799 41.8279 33.9187 41.4574L33.6551 41.2039H25.9716H18.2882L18.0246 41.4574Z" fill="#16DB32"/>
<path d="M44.8727 6.33716C43.8573 6.76617 43.1446 7.49744 42.7736 8.49196C42.5686 9.02822 42.5686 9.17447 42.5686 16.7699V24.5018L42.8224 24.7651C43.1934 25.1258 43.8964 25.1258 44.2674 24.7651L44.5212 24.5018V18.7199V12.9283H46.2785H48.0359V27.7974V42.6664H46.2785H44.5212V37.5086V32.3605L44.2674 32.0972C43.8964 31.7365 43.1934 31.7365 42.8224 32.0972L42.5686 32.3605V38.2204V44.09L43.9745 47.2003C44.7457 48.9163 45.478 50.4179 45.5951 50.5349C45.8978 50.8566 46.6593 50.8566 46.9619 50.5349C47.0791 50.4081 47.8113 48.9066 48.5826 47.2003L49.9885 44.09L49.9689 26.4323L49.9396 8.78447L49.6272 8.14095C49.2465 7.37069 48.6314 6.77592 47.8601 6.41516C47.4013 6.20066 47.1377 6.15191 46.3762 6.12266C45.5756 6.10316 45.3706 6.13241 44.8727 6.33716ZM46.9912 8.2872C47.6551 8.56021 48.0359 9.34998 48.0359 10.442V10.8808H46.2785H44.5212V10.442C44.5212 8.99897 45.146 8.1507 46.2102 8.1507C46.464 8.1507 46.8155 8.2092 46.9912 8.2872ZM46.8838 45.9328C46.5812 46.6055 46.3078 47.1515 46.2785 47.1515C46.2492 47.1515 45.9759 46.6055 45.6732 45.9328L45.1265 44.714H46.2785H47.4306L46.8838 45.9328Z" fill="#16DB32"/>
<path d="M42.8224 27.7096C42.6174 27.9143 42.5686 28.0606 42.5686 28.4311C42.5686 28.8016 42.6174 28.9479 42.8224 29.1526C43.0275 29.3574 43.1739 29.4061 43.5449 29.4061C43.9159 29.4061 44.0623 29.3574 44.2674 29.1526C44.4724 28.9479 44.5212 28.8016 44.5212 28.4311C44.5212 28.0606 44.4724 27.9143 44.2674 27.7096C44.0623 27.5048 43.9159 27.4561 43.5449 27.4561C43.1739 27.4561 43.0275 27.5048 42.8224 27.7096Z" fill="#16DB32"/>
</svg>
