<svg width="268" height="142" viewBox="0 0 268 142" fill="none" xmlns="http://www.w3.org/2000/svg">
<path fill-rule="evenodd" clip-rule="evenodd" d="M135.889 59.7355C138.074 59.7355 139.986 61.0103 140.897 62.8314C141.625 63.0135 142.262 63.3778 142.809 63.833C142.991 63.833 143.173 63.742 143.355 63.742C144.63 63.742 145.722 64.5615 146.087 65.7452C146.269 65.8363 146.451 65.9273 146.633 66.0184C147.088 65.7452 147.544 65.6542 148.09 65.6542C149.638 65.6542 150.913 66.9289 150.913 68.4769C150.913 70.0248 149.638 71.2996 148.09 71.2996C147.999 71.2996 147.908 71.2996 147.817 71.2996C147.817 72.8475 146.542 74.1223 144.994 74.1223C144.357 74.1223 143.81 73.9402 143.355 73.667C142.9 74.1223 142.262 74.3044 141.534 74.3044C140.897 74.3044 140.35 74.1223 139.895 73.8491C139.622 73.8491 139.44 73.8491 139.166 73.8491C138.165 73.8491 137.254 73.576 136.435 73.1207C135.888 73.7581 135.16 74.2134 134.25 74.2134C133.794 74.2134 133.339 74.1223 132.884 73.8491C132.519 74.1223 131.973 74.2134 131.518 74.2134C130.607 74.2134 129.879 73.8491 129.333 73.2117C128.786 73.7581 128.058 74.2134 127.238 74.2134C125.69 74.2134 124.416 72.9386 124.416 71.3906C124.416 69.9337 125.508 68.75 126.874 68.5679C126.874 66.6558 128.422 65.1078 130.243 64.9257C130.425 62.103 132.884 59.7355 135.889 59.7355Z" fill="white"/>
<path fill-rule="evenodd" clip-rule="evenodd" d="M231.77 25.2256C233.318 25.2256 234.592 26.1362 235.23 27.411C235.685 27.5931 236.14 27.7752 236.505 28.1394C236.596 28.1394 236.778 28.1394 236.869 28.1394C237.779 28.1394 238.508 28.6857 238.781 29.5052C238.963 29.5052 239.054 29.5963 239.145 29.6874C239.418 29.5052 239.783 29.4142 240.147 29.4142C241.24 29.4142 242.059 30.3247 242.059 31.3263C242.059 32.419 241.148 33.2385 240.147 33.2385C240.056 33.2385 240.056 33.2385 239.965 33.2385C239.965 34.3312 239.054 35.1507 238.053 35.1507C237.597 35.1507 237.233 35.0596 236.96 34.7865C236.596 35.0596 236.14 35.2417 235.685 35.2417C235.321 35.2417 234.866 35.1507 234.592 34.8775C234.41 34.8775 234.319 34.8775 234.137 34.8775C233.409 34.8775 232.771 34.6954 232.225 34.4222C231.861 34.8775 231.314 35.1507 230.677 35.1507C230.313 35.1507 230.04 35.0596 229.767 34.9686C229.493 35.1507 229.129 35.2417 228.856 35.2417C228.219 35.2417 227.672 34.9686 227.399 34.5133C227.035 34.8775 226.489 35.1507 225.942 35.1507C224.85 35.1507 224.03 34.2401 224.03 33.2385C224.03 32.2369 224.758 31.4174 225.669 31.3263C225.669 29.9605 226.671 28.9589 228.036 28.8679C228.036 26.8646 229.675 25.2256 231.77 25.2256Z" fill="white"/>
<path fill-rule="evenodd" clip-rule="evenodd" d="M217.383 43.0726C220.297 43.0726 222.847 44.7116 224.121 47.1701C225.032 47.4432 225.851 47.8985 226.58 48.5359C226.762 48.5359 227.035 48.4448 227.308 48.4448C229.038 48.4448 230.404 49.5375 230.859 51.0855C231.133 51.1765 231.406 51.2676 231.588 51.4497C232.134 51.0854 232.772 50.9033 233.5 50.9033C235.594 50.9033 237.233 52.5423 237.233 54.6366C237.233 56.7309 235.594 58.3699 233.5 58.3699C233.409 58.3699 233.227 58.3699 233.136 58.3699C233.136 60.4642 231.406 62.1032 229.403 62.1032C228.583 62.1032 227.855 61.83 227.308 61.4658C226.671 62.0121 225.76 62.3763 224.85 62.3763C224.03 62.3763 223.302 62.1032 222.756 61.7389C222.482 61.7389 222.118 61.83 221.845 61.83C220.479 61.83 219.295 61.4658 218.203 60.9194C217.474 61.7389 216.473 62.2853 215.289 62.2853C214.652 62.2853 214.014 62.1031 213.559 61.83C213.013 62.1031 212.375 62.2853 211.738 62.2853C210.554 62.2853 209.552 61.7389 208.824 60.9194C208.096 61.7389 207.094 62.1942 206.001 62.1942C203.907 62.1942 202.268 60.5552 202.268 58.4609C202.268 56.5488 203.634 55.0008 205.455 54.7277C205.455 52.1781 207.458 50.0839 209.917 49.9017C210.19 46.0774 213.377 43.0726 217.383 43.0726Z" fill="white"/>
<path fill-rule="evenodd" clip-rule="evenodd" d="M29.718 23.8598C31.1749 23.8598 32.5407 24.6793 33.087 25.9541C33.5423 26.1362 33.9976 26.3183 34.3618 26.6825C34.4529 26.6825 34.635 26.6825 34.726 26.6825C35.6366 26.6825 36.365 27.2289 36.5471 28.0484C36.7292 28.0484 36.8203 28.1394 36.9114 28.2305C37.1845 28.0483 37.5487 27.9573 37.8219 27.9573C38.9146 27.9573 39.7341 28.7768 39.7341 29.8695C39.7341 30.9621 38.9146 31.7816 37.8219 31.7816C37.7308 31.7816 37.7309 31.7816 37.6398 31.7816C37.6398 32.7832 36.8203 33.6938 35.7276 33.6938C35.3634 33.6938 34.9081 33.6027 34.635 33.3296C34.2707 33.6027 33.9065 33.7848 33.3602 33.7848C32.996 33.7848 32.6317 33.6938 32.2675 33.4206C32.0854 33.4206 31.9944 33.4206 31.8122 33.4206C31.1749 33.4206 30.5375 33.2385 29.9911 32.9653C29.6269 33.4206 29.0806 33.6938 28.5343 33.6938C28.17 33.6938 27.8969 33.6027 27.6237 33.5117C27.3505 33.6938 26.9863 33.7848 26.7131 33.7848C26.1668 33.7848 25.6205 33.5117 25.2563 33.0564C24.892 33.4206 24.4368 33.6938 23.7994 33.6938C22.7067 33.6938 21.8872 32.8743 21.8872 31.7816C21.8872 30.78 22.6157 30.0516 23.5262 29.8695C23.5262 28.5947 24.5278 27.502 25.8026 27.411C26.0758 25.4077 27.7148 23.8598 29.718 23.8598Z" fill="white"/>
<path fill-rule="evenodd" clip-rule="evenodd" d="M219.842 81.1339L196.349 57.8237H180.597V104.99H219.842V81.1339Z" fill="#6BC5BC"/>
<path fill-rule="evenodd" clip-rule="evenodd" d="M51.5712 100.346H38.3682C41.587 86.8274 42.3334 72.7466 42.5055 58.8101C42.5525 55.0055 42.5567 51.2117 42.5567 47.4431H47.4737C47.3827 65.0168 47.3827 83.1368 51.5712 100.346Z" fill="#24B790"/>
<path fill-rule="evenodd" clip-rule="evenodd" d="M42.83 46.5325H47.1096C47.747 46.5325 48.2022 46.8967 48.2022 47.4431V48.3536H41.6462V47.4431C41.6462 46.8967 42.1926 46.5325 42.83 46.5325Z" fill="#2A5E88"/>
<path fill-rule="evenodd" clip-rule="evenodd" d="M42.4656 53.1798H47.3826V55.5473H42.4656V53.1798ZM47.4736 61.8301C47.4736 63.378 47.5647 65.017 47.5647 66.565H42.2834C42.3745 65.017 42.3745 63.378 42.3745 61.8301H47.4736ZM47.7468 69.7519L47.8378 71.3909H42.1013L42.1924 69.7519H47.7468ZM49.2037 87.4167C49.4768 89.3288 49.75 91.241 50.1142 93.0621H39.916C40.2802 91.15 40.5534 89.3288 40.8266 87.4167H49.2037Z" fill="#FFFAF5"/>
<path fill-rule="evenodd" clip-rule="evenodd" d="M42.5566 76.7631C44.4688 76.7631 46.1078 77.6736 46.9273 78.8574H55.3954V82.6817H46.7452C45.9257 83.7744 44.3777 84.5938 42.5566 84.5938C40.8266 84.5938 39.1876 83.8654 38.3681 82.6817H36.4559V106.174H32.6316V82.6817V78.8574H36.4559H38.277C39.0055 77.6736 40.6445 76.7631 42.5566 76.7631Z" fill="#2A5E88"/>
<path fill-rule="evenodd" clip-rule="evenodd" d="M38.3682 100.346H77.9773V122.473H38.3682V100.346Z" fill="#16DB32"/>
<path fill-rule="evenodd" clip-rule="evenodd" d="M38.3682 106.174H31.6301V122.473H38.3682V106.174Z" fill="#0A8B87"/>
<path fill-rule="evenodd" clip-rule="evenodd" d="M77.9773 122.473H118.861V82.7728H77.9773V122.473Z" fill="#26AD9F"/>
<path fill-rule="evenodd" clip-rule="evenodd" d="M132.519 82.7728H120.682V122.473H132.519V82.7728Z" fill="#B5A6BF"/>
<path fill-rule="evenodd" clip-rule="evenodd" d="M53.7565 56.8221H72.7871C72.7871 56.8221 69.327 80.4965 77.9773 100.347H48.2932C57.3077 80.3144 53.7565 56.8221 53.7565 56.8221Z" fill="#189A8D"/>
<path fill-rule="evenodd" clip-rule="evenodd" d="M58.8556 56.8221H63.9547L54.3939 66.3829C54.3939 64.5618 54.3029 62.9228 54.2118 61.5569L58.8556 56.8221ZM72.4229 59.7358C72.3318 61.1017 72.1497 62.9228 72.1497 65.1081L53.1192 84.1387C53.4834 82.1355 53.7565 80.1322 53.9386 78.3111L72.4229 59.7358ZM74.6993 90.6036C75.0635 91.8784 75.4277 93.2442 75.7919 94.519L69.9644 100.347H64.8653L74.6993 90.6036ZM48.3843 100.347L72.4229 76.3079C72.514 77.7648 72.6961 79.3128 72.8782 80.8607L53.4834 100.255H48.3843V100.347Z" fill="#6BC5BC"/>
<path fill-rule="evenodd" clip-rule="evenodd" d="M81.4375 78.5842H89.7235V82.7727H81.4375V78.5842Z" fill="#0A8B87"/>
<path fill-rule="evenodd" clip-rule="evenodd" d="M94.2764 78.5842H102.562V82.7727H94.2764V78.5842Z" fill="#0A8B87"/>
<path fill-rule="evenodd" clip-rule="evenodd" d="M107.115 78.5842H115.492V82.7727H107.115V78.5842Z" fill="#0A8B87"/>
<path fill-rule="evenodd" clip-rule="evenodd" d="M110.393 67.2023H112.214V69.0234V78.5842H110.393V69.0234H99.3754V78.5842H97.4632V69.0234H86.4455V78.5842H84.6244V69.0234H70.9661V67.2023H84.6244H86.4455H97.4632H99.3754H110.393Z" fill="#2A5E88"/>
<path fill-rule="evenodd" clip-rule="evenodd" d="M81.4375 86.1416H84.2602V92.5155H81.4375V86.1416ZM87.6293 86.1416H90.452V92.5155H87.6293V86.1416ZM93.9121 86.1416H96.7348V92.5155H93.9121V86.1416ZM100.104 86.1416H102.927V92.5155H100.104V86.1416ZM106.387 86.1416H109.209V92.5155H106.387V86.1416ZM112.578 86.1416H115.401V92.5155H112.578V86.1416ZM81.4375 95.6114H84.2602V101.985H81.4375V95.6114ZM87.6293 95.6114H90.452V101.985H87.6293V95.6114ZM93.9121 95.6114H96.7348V101.985H93.9121V95.6114ZM100.104 95.6114H102.927V101.985H100.104V95.6114ZM106.387 95.6114H109.209V101.985H106.387V95.6114ZM112.578 95.6114H115.401V101.985H112.578V95.6114ZM81.4375 104.99H84.2602V111.364H81.4375V104.99ZM87.6293 104.99H90.452V111.364H87.6293V104.99ZM93.9121 104.99H96.7348V111.364H93.9121V104.99ZM100.104 104.99H102.927V111.364H100.104V104.99ZM106.387 104.99H109.209V111.364H106.387V104.99ZM112.578 104.99H115.401V111.364H112.578V104.99Z" fill="#FEFFED"/>
<path fill-rule="evenodd" clip-rule="evenodd" d="M97.0989 114.369H101.925V116.281H97.0989V122.473H95.1868V116.281V114.369H97.0989Z" fill="#EF6328"/>
<path fill-rule="evenodd" clip-rule="evenodd" d="M41.0088 103.807H75.2456V106.538H41.0088V103.807ZM41.0088 108.815H75.2456V111.546H41.0088V108.815ZM41.0088 113.823H75.2456V116.554H41.0088V113.823Z" fill="#D8DEE3"/>
<path fill-rule="evenodd" clip-rule="evenodd" d="M123.596 98.7075V95.0653H129.606V98.7075H123.596Z" fill="#2A5E88"/>
<path fill-rule="evenodd" clip-rule="evenodd" d="M123.596 104.444V100.71H129.606V104.444H123.596Z" fill="#2A5E88"/>
<path fill-rule="evenodd" clip-rule="evenodd" d="M123.596 110.181V106.447H129.606V110.181H123.596Z" fill="#2A5E88"/>
<path fill-rule="evenodd" clip-rule="evenodd" d="M126.601 84.7758C128.24 84.7758 129.606 86.5969 129.606 88.8733C129.606 91.1497 128.24 92.9708 126.601 92.9708C124.962 92.9708 123.596 91.1497 123.596 88.8733C123.596 86.5969 124.962 84.7758 126.601 84.7758Z" fill="white"/>
<path fill-rule="evenodd" clip-rule="evenodd" d="M132.52 93.0622L138.438 87.4168H160.382V122.473H132.52V93.0622Z" fill="#26AD9F"/>
<path fill-rule="evenodd" clip-rule="evenodd" d="M155.283 87.4168H143.446C147.088 72.0284 147.179 55.8205 147.179 40.0679H151.55C151.55 55.9116 151.55 72.1194 155.283 87.4168Z" fill="#24B790"/>
<path fill-rule="evenodd" clip-rule="evenodd" d="M147.453 39.3392H151.277C151.823 39.3392 152.278 39.7034 152.278 40.1587V40.9782H146.451V40.1587C146.451 39.7034 146.906 39.3392 147.453 39.3392Z" fill="#2A5E88"/>
<path fill-rule="evenodd" clip-rule="evenodd" d="M147.179 45.349H151.55V47.4432H147.088L147.179 45.349ZM151.641 53.0887C151.641 54.4545 151.732 55.9114 151.732 57.3683H146.997C146.997 56.0024 147.088 54.5456 147.088 53.0887H151.641ZM151.823 60.191L151.914 61.739H146.815L146.906 60.191H151.823ZM153.189 75.9436C153.371 77.6736 153.644 79.3126 154.009 81.0427H144.903C145.176 79.4037 145.449 77.6736 145.723 75.9436H153.189Z" fill="#F3FFED"/>
<path fill-rule="evenodd" clip-rule="evenodd" d="M147.726 100.984H171.218V122.473H147.726V100.984Z" fill="#F0E4DD"/>
<path fill-rule="evenodd" clip-rule="evenodd" d="M159.29 100.984H168.942V57.8237H159.29V100.984Z" fill="#0A8B87"/>
<path fill-rule="evenodd" clip-rule="evenodd" d="M196.805 85.5956V89.8753H200.629V85.5956H209.279V89.8753H211.373V122.473H171.218V89.8753H189.975V85.5956H196.805Z" fill="#24B790"/>
<path fill-rule="evenodd" clip-rule="evenodd" d="M186.424 122.473H229.494V109.543L225.578 104.99H215.744V102.623H196.349L186.424 112.73V122.473Z" fill="#EDEBF0"/>
<path fill-rule="evenodd" clip-rule="evenodd" d="M189.702 113.458H195.53V119.286H189.702V113.458Z" fill="#6BC5BC"/>
<path fill-rule="evenodd" clip-rule="evenodd" d="M197.26 113.458H203.088V119.286H197.26V113.458Z" fill="#6BC5BC"/>
<path fill-rule="evenodd" clip-rule="evenodd" d="M213.923 113.458H219.751V119.286H213.923V113.458Z" fill="#6BC5BC"/>
<path fill-rule="evenodd" clip-rule="evenodd" d="M221.481 113.276H227.308V119.013H221.481V113.276Z" fill="#6BC5BC"/>
<path fill-rule="evenodd" clip-rule="evenodd" d="M211.373 112.548H205.91V122.473H211.373V112.548Z" fill="#2A5E88"/>
<path fill-rule="evenodd" clip-rule="evenodd" d="M196.623 107.449H225.214V109.999H196.623V107.449Z" fill="#D7502E"/>
<path fill-rule="evenodd" clip-rule="evenodd" d="M174.587 92.9708H189.884V95.6114H174.587V92.9708Z" fill="white"/>
<path fill-rule="evenodd" clip-rule="evenodd" d="M192.616 92.9708H207.822V95.6114H192.616V92.9708Z" fill="white"/>
<path fill-rule="evenodd" clip-rule="evenodd" d="M174.587 100.529H178.958V109.543H174.587V100.529Z" fill="white"/>
<path fill-rule="evenodd" clip-rule="evenodd" d="M180.779 100.529H185.058V109.543H180.779V100.529Z" fill="white"/>
<path fill-rule="evenodd" clip-rule="evenodd" d="M174.587 111.273H178.958V120.287H174.587V111.273Z" fill="white"/>
<path fill-rule="evenodd" clip-rule="evenodd" d="M180.779 111.273H185.058V120.287H180.779V111.273Z" fill="white"/>
<path fill-rule="evenodd" clip-rule="evenodd" d="M171.218 103.169H145.905V105.081H171.218V103.169Z" fill="#2A5E88"/>
<path fill-rule="evenodd" clip-rule="evenodd" d="M167.94 108.541H171.218V110.454H167.94V122.473H166.028V110.454V108.541H167.94Z" fill="#2A5E88"/>
<path fill-rule="evenodd" clip-rule="evenodd" d="M182.873 84.1386V89.8751H178.229V84.1386H171.491L165.026 90.6946V100.984H160.383V95.3384V88.6913L165.026 84.0475L168.851 80.2232L169.579 79.4948H176.135H178.229H182.873V84.1386Z" fill="#2A5E88"/>
<path fill-rule="evenodd" clip-rule="evenodd" d="M134.705 94.1548H138.711V105.901H134.705V94.1548Z" fill="#F0FFF4"/>
<path fill-rule="evenodd" clip-rule="evenodd" d="M140.532 94.1548H144.448V105.901H140.532V94.1548Z" fill="white"/>
<path fill-rule="evenodd" clip-rule="evenodd" d="M134.705 107.722H138.711V119.468H134.705V107.722Z" fill="#FCFFFA"/>
<path fill-rule="evenodd" clip-rule="evenodd" d="M140.532 107.722H144.448V119.468H140.532V107.722Z" fill="#EDFFEB"/>
<path fill-rule="evenodd" clip-rule="evenodd" d="M161.657 71.2088V68.204H166.574V71.2088H161.657Z" fill="white"/>
<path fill-rule="evenodd" clip-rule="evenodd" d="M161.657 75.8527V72.8479H166.574V75.8527H161.657Z" fill="white"/>
<path fill-rule="evenodd" clip-rule="evenodd" d="M161.657 80.4962V77.4914H166.574V80.4962H161.657Z" fill="white"/>
<path fill-rule="evenodd" clip-rule="evenodd" d="M164.116 59.9178C165.482 59.9178 166.574 61.3747 166.574 63.2869C166.574 65.108 165.482 66.6559 164.116 66.6559C162.75 66.6559 161.657 65.199 161.657 63.2869C161.657 61.3747 162.75 59.9178 164.116 59.9178Z" fill="#FEFFED"/>
<path fill-rule="evenodd" clip-rule="evenodd" d="M196.167 39.7945H203.907V43.8009H206.092V89.875H186.151V43.8009H196.167V39.7945Z" fill="#189A8D"/>
<path fill-rule="evenodd" clip-rule="evenodd" d="M189.338 46.5325H192.07V53.7259H189.338V46.5325ZM194.71 46.5325H197.442V53.7259H194.71V46.5325ZM200.174 46.5325H202.905V53.7259H200.174V46.5325ZM189.338 56.3665H192.07V63.5599H189.338V56.3665ZM194.71 56.3665H197.442V63.5599H194.71V56.3665ZM200.174 56.3665H202.905V63.5599H200.174V56.3665ZM189.338 66.2005H192.07V73.3939H189.338V66.2005ZM194.71 66.2005H197.442V73.3939H194.71V66.2005ZM200.174 66.2005H202.905V73.3939H200.174V66.2005ZM189.338 76.1255H192.07V83.3189H189.338V76.1255ZM194.71 76.1255H197.442V83.3189H194.71V76.1255ZM200.174 76.1255H202.905V83.3189H200.174V76.1255Z" fill="#F0FFE6"/>
<path fill-rule="evenodd" clip-rule="evenodd" d="M190.249 35.697H193.072V43.8009H190.249V35.697Z" fill="#D7502E"/>
<path fill-rule="evenodd" clip-rule="evenodd" d="M190.067 34.8776H193.254C193.709 34.8776 194.073 35.2418 194.073 35.6971V36.5166H189.247V35.6971C189.247 35.2418 189.611 34.8776 190.067 34.8776Z" fill="#2A5E88"/>
<path fill-rule="evenodd" clip-rule="evenodd" d="M162.113 17.0306C164.571 17.0306 166.756 18.2143 168.031 20.1264C168.76 19.6712 169.579 19.3069 170.49 19.3069C172.766 19.3069 174.587 21.037 174.678 23.3134C175.953 24.0418 176.864 25.4077 176.864 27.0467C176.864 29.4141 174.951 31.3262 172.584 31.3262C172.311 31.3262 172.129 31.3263 171.856 31.2352C171.765 32.3279 170.854 33.1474 169.67 33.1474C169.488 33.1474 169.306 33.1474 169.124 33.0563C169.306 33.5116 169.397 33.9669 169.397 34.4222C169.397 36.7896 167.485 38.7017 165.117 38.7017C163.934 38.7017 162.841 38.2465 162.113 37.427C161.475 38.0644 160.565 38.4286 159.654 38.4286C157.833 38.4286 156.285 37.0628 156.012 35.2416C155.739 35.4238 155.375 35.6059 155.01 35.6059C154.464 35.6059 154.009 35.4237 153.736 35.0595C153.462 35.6969 152.825 36.1522 152.097 36.1522C151.914 36.1522 151.823 36.1522 151.732 36.1522C151.732 36.2433 151.732 36.2432 151.732 36.3343C151.732 37.3359 150.913 38.1554 149.911 38.1554C148.91 38.1554 148.09 37.3359 148.09 36.3343C148.09 35.5148 148.727 34.7864 149.456 34.6042C148.91 34.149 148.636 33.4205 148.636 32.6921C148.636 31.2352 149.82 30.0515 151.277 30.0515C151.459 30.0515 151.55 30.0515 151.732 30.0515C151.095 29.323 150.731 28.4125 150.731 27.3198C150.731 25.0434 152.552 23.2223 154.828 23.2223C155.466 19.5801 158.47 17.0306 162.113 17.0306ZM151.186 19.5801C151.732 19.5801 152.097 20.0354 152.097 20.4907C152.097 21.037 151.641 21.4012 151.186 21.4012C150.64 21.4012 150.275 20.9459 150.275 20.4907C150.275 19.9443 150.731 19.5801 151.186 19.5801ZM169.124 14.2078C170.034 14.2078 170.763 14.9363 170.763 15.8468C170.763 16.7574 170.034 17.4858 169.124 17.4858C168.213 17.4858 167.485 16.7574 167.485 15.8468C167.485 14.9363 168.213 14.2078 169.124 14.2078ZM171.856 33.6026C172.311 33.6026 172.675 33.9669 172.675 34.4222C172.675 34.8774 172.311 35.2416 171.856 35.2416C171.4 35.2416 171.036 34.8774 171.036 34.4222C171.036 33.9669 171.4 33.6026 171.856 33.6026ZM175.134 32.601C175.316 32.601 175.589 32.7832 175.589 33.0563C175.589 33.2384 175.407 33.5116 175.134 33.5116C174.951 33.5116 174.678 33.3295 174.678 33.0563C174.678 32.7832 174.86 32.601 175.134 32.601Z" fill="#BCBEC0"/>
<path fill-rule="evenodd" clip-rule="evenodd" d="M65.9579 19.3981C69.418 19.3981 72.2407 22.2208 72.2407 25.6809C72.2407 25.772 72.2407 25.9541 72.2407 26.0451C73.6976 26.8646 74.6992 28.5036 74.6992 30.3247C74.6992 33.0564 72.5139 35.2417 69.7822 35.2417C69.327 35.2417 68.9627 35.1507 68.5075 35.0596C67.688 36.6986 66.049 37.7913 64.1368 37.7913C63.6815 37.7913 63.1352 37.7002 62.6799 37.6092C61.7694 38.975 60.3125 39.8856 58.5824 39.8856C58.3093 39.8856 58.1271 39.8856 57.854 39.7945C57.854 39.9766 57.854 40.1587 57.854 40.2498C57.854 41.8888 56.4881 43.2546 54.8491 43.2546C53.5744 43.2546 52.5728 42.5262 52.1175 41.4335C51.5712 41.9798 50.8427 42.344 49.9322 42.344C49.1127 42.344 48.2932 41.9798 47.7468 41.4335C47.5647 41.4335 47.3826 41.4335 47.1094 41.3424C47.2915 41.6156 47.3826 41.9798 47.3826 42.344C47.3826 43.6188 46.381 44.6204 45.1062 44.6204C43.8314 44.6204 42.8298 43.6188 42.8298 42.344C42.8298 41.0693 43.8314 40.0677 45.1062 40.0677C45.1973 40.0677 45.2883 40.0677 45.3794 40.0677C45.1062 39.6124 44.8331 39.0661 44.8331 38.4287C44.8331 36.7897 46.1989 35.4238 47.8379 35.4238C48.3842 35.4238 48.8395 35.5149 49.2948 35.7881C49.8411 34.9686 50.7517 34.4222 51.7533 34.3312C51.6622 34.058 51.6622 33.6938 51.6622 33.4206C51.6622 31.2353 53.1191 29.3231 55.1223 28.6857C55.7597 26.7736 57.5808 25.4078 59.6751 25.3167C59.8572 22.0387 62.5889 19.3981 65.9579 19.3981ZM51.9354 25.6809C52.6638 25.6809 53.3012 26.3183 53.3012 27.0467C53.3012 27.7752 52.6638 28.4126 51.9354 28.4126C51.2069 28.4126 50.5695 27.7752 50.5695 27.0467C50.6606 26.2273 51.2069 25.6809 51.9354 25.6809ZM77.0667 27.5931C77.613 27.5931 77.9772 28.0484 77.9772 28.5036C77.9772 29.05 77.522 29.4142 77.0667 29.4142C76.5203 29.4142 76.1561 28.9589 76.1561 28.5036C76.0651 28.0484 76.5203 27.5931 77.0667 27.5931ZM71.057 17.9412C71.4212 17.9412 71.6944 18.2144 71.6944 18.5786C71.6944 18.9428 71.4212 19.216 71.057 19.216C70.6928 19.216 70.4196 18.9428 70.4196 18.5786C70.4196 18.2144 70.6017 17.9412 71.057 17.9412Z" fill="#BCBEC0"/>
<path fill-rule="evenodd" clip-rule="evenodd" d="M201.357 21.8568C202.996 21.8568 204.271 23.1316 204.271 24.7706C204.271 24.8616 204.271 24.8616 204.271 24.9526C204.908 25.3169 205.455 26.0453 205.455 26.9559C205.455 28.2307 204.453 29.2323 203.178 29.2323C202.996 29.2323 202.814 29.2323 202.632 29.1412C202.268 29.8696 201.448 30.416 200.538 30.416C200.265 30.416 200.083 30.416 199.9 30.3249C199.536 30.9623 198.808 31.4176 197.988 31.4176C197.897 31.4176 197.806 31.4176 197.624 31.4176C197.624 31.5086 197.624 31.5997 197.624 31.5997C197.624 32.3282 196.987 32.9655 196.258 32.9655C195.712 32.9655 195.166 32.6013 194.983 32.146C194.71 32.4192 194.346 32.6013 193.982 32.6013C193.618 32.6013 193.253 32.4192 192.98 32.146C192.889 32.146 192.798 32.146 192.707 32.146C192.798 32.3282 192.798 32.4192 192.798 32.6013C192.798 33.1477 192.343 33.694 191.705 33.694C191.159 33.694 190.613 33.2387 190.613 32.6013C190.613 32.055 191.068 31.5086 191.705 31.5086H191.797C191.614 31.3265 191.523 31.0534 191.523 30.6892C191.523 29.9607 192.161 29.3233 192.889 29.3233C193.162 29.3233 193.344 29.4144 193.527 29.5054C193.8 29.1412 194.164 28.868 194.71 28.868C194.71 28.6859 194.71 28.5949 194.71 28.4128C194.71 27.4112 195.348 26.5006 196.349 26.2274C196.622 25.3169 197.442 24.6795 198.444 24.6795C198.444 23.1315 199.718 21.8568 201.357 21.8568ZM197.351 22.5852C197.533 22.5852 197.806 22.7673 197.806 23.0405C197.806 23.2226 197.624 23.4958 197.351 23.4958C197.169 23.4958 196.896 23.3137 196.896 23.0405C196.987 22.7673 197.169 22.5852 197.351 22.5852ZM206.73 23.4958C207.185 23.4958 207.549 23.86 207.549 24.3153C207.549 24.7706 207.185 25.1348 206.73 25.1348C206.274 25.1348 205.91 24.7706 205.91 24.3153C205.91 23.86 206.274 23.4958 206.73 23.4958ZM204.362 18.7609C205.091 18.7609 205.728 19.3983 205.728 20.1267C205.728 20.8552 205.091 21.4926 204.362 21.4926C203.634 21.4926 202.996 20.8552 202.996 20.1267C202.996 19.3983 203.543 18.7609 204.362 18.7609ZM200.902 17.2129C201.084 17.2129 201.357 17.395 201.357 17.6682C201.357 17.8503 201.175 18.1235 200.902 18.1235C200.72 18.1235 200.447 17.9414 200.447 17.6682C200.447 17.395 200.629 17.2129 200.902 17.2129Z" fill="#BCBEC0"/>
<path fill-rule="evenodd" clip-rule="evenodd" d="M73.5155 42.5261C73.5155 42.8903 73.2423 43.1635 72.8781 43.1635C72.5139 43.1635 72.2407 42.8903 72.2407 42.5261C72.2407 42.1619 72.5139 41.8887 72.8781 41.8887C73.2423 41.8887 73.5155 42.1619 73.5155 42.5261ZM69.0538 43.5277C70.4196 43.5277 71.6033 44.4382 72.0586 45.622C72.605 44.9846 73.4244 44.5293 74.4261 44.5293C74.6082 44.5293 74.7903 44.5293 74.9724 44.5293C74.9724 44.4382 74.9724 44.3472 74.9724 44.2561C74.9724 41.7066 76.9756 39.7034 79.5252 39.7034C81.0731 39.7034 82.53 40.5228 83.3495 41.7976C83.7137 41.4334 84.26 41.2513 84.8064 41.2513C86.0812 41.2513 87.0828 42.2529 87.0828 43.5277C87.0828 44.6204 86.2633 45.5309 85.1706 45.713C85.3527 46.2594 85.5348 46.8057 85.5348 47.4431C85.5348 49.9926 83.5316 51.9958 80.982 51.9958C79.252 51.9958 77.7041 50.9942 76.9756 49.5373C76.4293 50.2658 75.5187 50.7211 74.5171 50.7211C74.2439 50.7211 73.9708 50.7211 73.6976 50.63C73.4244 51.0853 72.9692 51.3584 72.4228 51.3584C72.2407 51.3584 71.9676 51.2674 71.7855 51.2674C71.4212 51.9958 70.6928 52.4511 69.7822 52.4511C69.2359 52.4511 68.6896 52.269 68.3253 51.9048C68.0522 52.0869 67.688 52.178 67.3237 52.178C67.2327 52.178 67.1416 52.178 67.0506 52.178C66.9595 53.2706 65.9579 54.1812 64.7742 54.1812C63.4994 54.1812 62.4978 53.1796 62.4978 51.9048C62.4978 50.63 63.4994 49.6284 64.7742 49.6284C64.8652 49.6284 64.9563 49.6284 65.0473 49.6284C65.1384 48.8999 65.5937 48.2626 66.2311 47.8983C66.049 47.5341 65.9579 47.1699 65.9579 46.7146C65.9579 44.8935 67.3237 43.5277 69.0538 43.5277ZM83.1674 36.0611C83.8958 36.0611 84.5332 36.6985 84.5332 37.427C84.5332 38.1554 83.8958 38.7928 83.1674 38.7928C82.4389 38.7928 81.8015 38.1554 81.8015 37.427C81.8015 36.6985 82.4389 36.0611 83.1674 36.0611Z" fill="#BCBEC0"/>
<path fill-rule="evenodd" clip-rule="evenodd" d="M53.5744 55.8203H72.8781C73.4244 55.8203 73.8797 56.2756 73.8797 56.8219V57.8235H52.5728V56.8219C52.5728 56.2756 53.028 55.8203 53.5744 55.8203Z" fill="#2A5E88"/>
<path fill-rule="evenodd" clip-rule="evenodd" d="M101.925 112.366H127.147V122.473H101.925V112.366Z" fill="#2A5E88"/>
<path fill-rule="evenodd" clip-rule="evenodd" d="M103.928 114.642H125.053V117.283H103.928V114.642Z" fill="white"/>
<path fill-rule="evenodd" clip-rule="evenodd" d="M95.8241 41.7068C97.9184 41.7068 99.8305 42.8905 100.65 44.7116C101.287 44.8937 101.925 45.2579 102.471 45.7132C102.653 45.7132 102.835 45.6221 102.926 45.6221C104.201 45.6221 105.203 46.4416 105.567 47.5343C105.749 47.6254 105.931 47.7164 106.113 47.8075C106.478 47.5343 107.024 47.4432 107.479 47.4432C109.027 47.4432 110.211 48.627 110.211 50.1749C110.211 51.7228 109.027 52.9066 107.479 52.9066C107.388 52.9066 107.297 52.9066 107.206 52.9066C107.206 54.3634 105.931 55.6382 104.474 55.6382C103.928 55.6382 103.382 55.4561 102.926 55.1829C102.471 55.5472 101.834 55.8203 101.196 55.8203C100.65 55.8203 100.104 55.6382 99.6484 55.3651C99.4663 55.3651 99.1932 55.3651 99.011 55.3651C98.0094 55.3651 97.0989 55.0919 96.3704 54.6366C95.9151 55.274 95.0957 55.6382 94.2762 55.6382C93.8209 55.6382 93.3656 55.5472 93.0014 55.3651C92.6372 55.5472 92.1819 55.7293 91.6356 55.7293C90.8161 55.7293 89.9965 55.3651 89.5413 54.7277C89.086 55.274 88.2665 55.6382 87.5381 55.6382C85.9901 55.6382 84.8064 54.4545 84.8064 52.9066C84.8064 51.5407 85.808 50.357 87.1738 50.1749C87.1738 48.3538 88.6307 46.8059 90.4518 46.7148C90.6339 43.8921 93.0014 41.7068 95.8241 41.7068Z" fill="white"/>
<path fill-rule="evenodd" clip-rule="evenodd" d="M119.863 17.4859C121.866 17.4859 123.596 18.5786 124.416 20.3087C125.053 20.4908 125.599 20.855 126.055 21.2192C126.237 21.2192 126.328 21.2192 126.51 21.2192C127.694 21.2192 128.604 21.9477 128.969 23.0403C129.151 23.1314 129.333 23.1314 129.515 23.2224C129.879 23.0403 130.334 22.8582 130.79 22.8582C132.155 22.8582 133.339 23.9508 133.339 25.4077C133.339 26.7736 132.247 27.9573 130.79 27.9573C130.699 27.9573 130.608 27.9573 130.516 27.9573C130.516 29.3231 129.333 30.4158 127.967 30.4158C127.421 30.4158 126.965 30.2337 126.51 29.9605C126.055 30.3247 125.508 30.5979 124.871 30.5979C124.325 30.5979 123.869 30.4158 123.414 30.1426C123.232 30.1426 122.959 30.1426 122.777 30.1426C121.866 30.1426 121.047 29.8695 120.318 29.5052C119.863 30.0516 119.135 30.4158 118.315 30.4158C117.86 30.4158 117.496 30.3247 117.131 30.1426C116.767 30.3247 116.312 30.5068 115.857 30.5068C115.037 30.5068 114.4 30.1426 113.944 29.5963C113.489 30.1426 112.761 30.4158 112.032 30.4158C110.666 30.4158 109.483 29.3231 109.483 27.8662C109.483 26.5915 110.393 25.4988 111.668 25.3167C111.668 23.5866 113.034 22.2208 114.673 22.0387C115.037 19.4892 117.222 17.4859 119.863 17.4859Z" fill="white"/>
<path fill-rule="evenodd" clip-rule="evenodd" d="M171.127 42.6173C172.129 42.6173 173.039 43.2547 173.494 44.0742C173.859 44.1652 174.132 44.3473 174.405 44.5295C174.496 44.5295 174.587 44.5295 174.678 44.5295C175.315 44.5295 175.771 44.8937 175.953 45.44C176.044 45.44 176.135 45.5311 176.226 45.5311C176.408 45.44 176.681 45.349 176.863 45.349C177.592 45.349 178.229 45.9864 178.229 46.7148C178.229 47.4432 177.592 48.0806 176.863 48.0806H176.772C176.772 48.8091 176.135 49.3554 175.407 49.3554C175.133 49.3554 174.86 49.2643 174.678 49.0822C174.405 49.2643 174.132 49.4465 173.768 49.4465C173.494 49.4465 173.221 49.3554 173.039 49.1733C172.948 49.1733 172.857 49.1733 172.675 49.1733C172.22 49.1733 171.764 49.0822 171.4 48.8091C171.127 49.0822 170.763 49.2643 170.398 49.2643C170.216 49.2643 169.943 49.1733 169.761 49.0822C169.579 49.1733 169.306 49.2643 169.124 49.2643C168.668 49.2643 168.304 49.0822 168.122 48.8091C167.849 49.0822 167.485 49.2643 167.12 49.2643C166.392 49.2643 165.755 48.627 165.755 47.8985C165.755 47.2611 166.21 46.7148 166.938 46.6237C166.938 45.7132 167.667 44.9848 168.577 44.8937C168.577 43.71 169.761 42.6173 171.127 42.6173Z" fill="white"/>
<path fill-rule="evenodd" clip-rule="evenodd" d="M31.539 59.4626C32.5406 59.4626 33.4512 60.0999 33.9065 60.9194C34.2707 61.0105 34.5438 61.1926 34.817 61.3747C34.9081 61.3747 34.9991 61.3747 35.0902 61.3747C35.7276 61.3747 36.1828 61.7389 36.365 62.2853C36.456 62.2853 36.5471 62.3763 36.6381 62.3763C36.8202 62.2853 37.0934 62.1942 37.2755 62.1942C38.0039 62.1942 38.6413 62.8316 38.6413 63.5601C38.6413 64.2885 38.0039 64.9259 37.2755 64.9259H37.1845C37.1845 65.6543 36.5471 66.2007 35.8186 66.2007C35.5455 66.2007 35.2723 66.1096 35.0902 65.9275C34.817 66.1096 34.5438 66.2917 34.1796 66.2917C33.9065 66.2917 33.6333 66.2007 33.4512 66.0185C33.3601 66.0185 33.2691 66.0185 33.087 66.0185C32.6317 66.0185 32.1764 65.9275 31.8122 65.6543C31.539 65.9275 31.1748 66.1096 30.8106 66.1096C30.6285 66.1096 30.3553 66.0185 30.1732 65.9275C29.9911 66.0185 29.7179 66.1096 29.5358 66.1096C29.0805 66.1096 28.7163 65.9275 28.5342 65.6543C28.261 65.9275 27.8968 66.1096 27.5326 66.1096C26.8041 66.1096 26.1667 65.4722 26.1667 64.7438C26.1667 64.1064 26.622 63.5601 27.3505 63.469C27.3505 62.5584 28.0789 61.83 28.9895 61.739C28.9895 60.5552 30.1732 59.4626 31.539 59.4626Z" fill="white"/>
<path fill-rule="evenodd" clip-rule="evenodd" d="M237.78 83.5922C238.781 83.5922 239.692 84.2296 240.147 85.0491C240.511 85.1402 240.785 85.3223 241.058 85.5044C241.149 85.5044 241.24 85.5044 241.331 85.5044C241.968 85.5044 242.424 85.8686 242.606 86.4149C242.697 86.4149 242.788 86.506 242.879 86.506C243.061 86.4149 243.334 86.3239 243.516 86.3239C244.245 86.3239 244.882 86.9613 244.882 87.6897C244.882 88.4182 244.245 89.0556 243.516 89.0556H243.425C243.425 89.784 242.788 90.3303 242.059 90.3303C241.786 90.3303 241.513 90.2393 241.331 90.0572C241.058 90.2393 240.785 90.4214 240.42 90.4214C240.147 90.4214 239.874 90.3303 239.692 90.1482C239.601 90.1482 239.51 90.1482 239.328 90.1482C238.872 90.1482 238.417 90.0572 238.053 89.784C237.78 90.0572 237.415 90.2393 237.051 90.2393C236.869 90.2393 236.596 90.1482 236.414 90.0572C236.232 90.1482 235.959 90.2393 235.777 90.2393C235.321 90.2393 234.957 90.0572 234.775 89.784C234.502 90.0572 234.138 90.2393 233.773 90.2393C233.045 90.2393 232.407 89.6019 232.407 88.8734C232.407 88.2361 232.863 87.6897 233.591 87.5987C233.591 86.6881 234.32 85.9597 235.23 85.8686C235.23 84.6849 236.414 83.5922 237.78 83.5922Z" fill="white"/>
</svg>
