<svg width="50" height="51" viewBox="0 0 50 51" fill="none" xmlns="http://www.w3.org/2000/svg">
<path d="M0.644531 1.02678C0.205078 1.31937 0 1.70948 0 2.24589C0 2.77254 2.1875 11.5306 2.57812 12.5644C3.36914 14.6711 3.67188 15.0514 8.80859 20.2009L13.3789 24.7848L7.02148 31.1241C-0.390625 38.5266 0.0488281 37.9804 0.0488281 39.853C0.0488281 40.916 0.0683594 41.0038 0.371094 41.6572C0.673828 42.2912 0.976562 42.6228 4.57031 46.2118C8.16406 49.8009 8.49609 50.1032 9.13086 50.4056C9.78516 50.7079 9.87305 50.7274 10.9375 50.7274C12.793 50.7274 12.1484 51.2346 19.5801 43.8419L26.0254 37.4147L31.7871 43.1787C34.9609 46.3484 37.8223 49.1377 38.1543 49.3718C39.4629 50.3178 40.9082 50.7762 42.5781 50.7762C43.8477 50.7762 44.7559 50.5714 45.8496 50.0447C47.4219 49.284 48.5742 48.1234 49.3262 46.5337C49.873 45.3633 50.0391 44.4661 49.9707 42.9836C49.9023 41.3159 49.541 40.2723 48.584 38.9264C48.3496 38.6046 45.5664 35.7568 42.3926 32.5871L36.6211 26.8329L43.0566 20.396C50.459 12.9741 49.9512 13.6177 49.9512 11.7647C49.9512 10.7016 49.9316 10.6139 49.6289 9.96041C49.3262 9.32648 49.0234 8.99488 45.4297 5.40582C41.8359 1.81676 41.5039 1.51443 40.8691 1.21209C40.2148 0.909748 40.127 0.890244 39.0625 0.890244C37.1875 0.890244 37.7344 0.451363 30.3223 7.85379L23.9746 14.2029L19.3848 9.63857C14.2188 4.50856 13.8477 4.20622 11.7285 3.40648C10.6836 3.01637 1.94336 0.841476 1.40625 0.841476C1.10352 0.841476 0.830078 0.909748 0.644531 1.02678ZM43.2324 7.60022L46.9727 11.3258V11.7549C46.9727 12.1548 46.9238 12.2231 46.1914 12.9741L45.4199 13.764L43.1445 11.5014C41.8945 10.2628 40.7324 9.18018 40.5566 9.09241C39.8438 8.7413 38.8867 9.05339 38.5742 9.7361C38.1152 10.7504 38.252 10.9942 40.9473 13.6958L43.2129 15.9584L42.1387 17.0312L41.0645 18.1041L39.8438 16.8947C39.1699 16.2315 38.5254 15.6366 38.4082 15.5781C38.1055 15.422 37.3438 15.4415 37.0117 15.6171C36.4258 15.9194 36.1426 16.5729 36.2793 17.2946C36.3379 17.5969 36.582 17.8993 37.627 18.9623L38.9062 20.2497L37.8125 21.3518L36.7188 22.4441L34.4043 20.1327C33.125 18.8648 31.9824 17.7822 31.8652 17.7237C31.748 17.6652 31.4746 17.6164 31.25 17.6164C30.2051 17.6164 29.5215 18.4942 29.7949 19.4987C29.8828 19.8498 30.2441 20.2497 32.2363 22.249L34.5703 24.5897L33.4961 25.6625L32.4219 26.7256L31.2207 25.5357C29.8828 24.2191 29.5215 23.9948 28.8184 24.1021C28.252 24.1899 27.6855 24.7165 27.5879 25.2627C27.4512 25.9844 27.6465 26.3355 28.9844 27.6911L30.2148 28.9298L29.1699 29.9831L28.125 31.0266L25.8594 28.764C24.6094 27.5253 23.4473 26.4428 23.2715 26.355C22.5586 26.0039 21.6016 26.316 21.2891 26.9987C20.8301 28.013 20.9668 28.2568 23.6621 30.9583L25.9277 33.221L24.8535 34.2938L23.7793 35.3666L22.5586 34.1573C21.8848 33.4941 21.2402 32.8992 21.123 32.8407C20.8203 32.6846 20.0586 32.7041 19.7266 32.8797C19.1406 33.182 18.8574 33.8354 18.9941 34.5669C19.0527 34.8595 19.2969 35.1618 20.3418 36.2249L21.6211 37.5123L20.5273 38.6144L19.4336 39.7067L17.1191 37.3952C15.8398 36.1274 14.6973 35.0448 14.5801 34.9863C14.4629 34.9278 14.1895 34.879 13.9648 34.879C12.9199 34.879 12.2363 35.7568 12.5098 36.7613C12.5977 37.1124 12.959 37.5123 14.9512 39.5116L17.2852 41.8523L16.2109 42.9251L15.1367 43.9882L13.9355 42.7983C12.5977 41.4817 12.2363 41.2574 11.5332 41.3647C10.9668 41.4524 10.4004 41.9791 10.3027 42.5253C10.166 43.247 10.3613 43.5981 11.709 44.9537L12.9395 46.2021L12.1484 46.9726C11.3965 47.704 11.3281 47.7528 10.9277 47.7528H10.498L6.76758 44.0174L3.02734 40.2918V39.853V39.4141L20.8301 21.6444L38.623 3.86487H39.0625H39.502L43.2324 7.60022ZM7.07031 5.28879C11.4844 6.40062 12.0996 6.68345 13.9941 8.5365L14.6484 9.18018L11.5039 12.3206L8.34961 15.4708L7.83203 14.9539C6.91406 14.0664 6.13281 13.0131 5.70312 12.106C5.38086 11.4136 5.10742 10.5163 4.45312 7.8928C3.99414 6.05927 3.61328 4.53782 3.61328 4.50856C3.61328 4.42078 3.59375 4.41103 7.07031 5.28879ZM19.3359 13.8616L21.8262 16.3485L18.6719 19.4987L15.5273 22.6391L13.0176 20.1229L10.498 17.6164L13.623 14.4955C15.3418 12.779 16.7676 11.3746 16.7969 11.3746C16.8262 11.3746 17.9688 12.4962 19.3359 13.8616ZM37.5781 32.0799L40.625 35.1228L37.4707 38.273L34.3262 41.4134L31.25 38.3413L28.1738 35.2691L31.2988 32.1482C33.0176 30.4317 34.4434 29.0273 34.4727 29.0273C34.502 29.0273 35.8984 30.4024 37.5781 32.0799ZM44.502 39.0045C45.9473 40.4772 46.2109 40.7892 46.543 41.4622C46.9238 42.2229 46.9238 42.2424 46.9238 43.364C46.9238 44.4758 46.9141 44.5148 46.5625 45.2268C46.0938 46.1826 45.4004 46.875 44.4434 47.3432C43.7305 47.6943 43.6914 47.704 42.5781 47.704C41.4551 47.704 41.4355 47.704 40.6738 47.3237C40 46.9921 39.6875 46.7385 38.1836 45.2561L36.4746 43.5688L39.5996 40.4381C41.3184 38.7216 42.7539 37.3172 42.7832 37.3172C42.8125 37.3172 43.5938 38.0779 44.502 39.0045Z" fill="#16DB32"/>
</svg>
