<svg width="42" height="43" viewBox="0 0 42 43" fill="none" xmlns="http://www.w3.org/2000/svg">
<path d="M28.9469 9.90222C28.9469 10.7033 28.9002 11.4825 28.8178 12.2354C28.222 17.3681 25.6485 21.186 21.6981 21.186C17.7318 21.186 15.1532 17.3367 14.5734 12.1739C14.4903 11.4408 14.4487 10.6821 14.4487 9.90222C14.4487 5.88739 17.696 2.63001 21.6981 2.63001C25.7054 2.63001 28.9469 5.88739 28.9469 9.90222Z" fill="#FCD4AF"/>
<path d="M28.8179 12.2354C28.9003 11.4825 28.947 10.7033 28.947 9.90222C28.947 5.88739 25.7055 2.63001 21.6982 2.63001V21.186C25.6486 21.186 28.2221 17.3681 28.8179 12.2354Z" fill="#FDE1BA"/>
<path d="M27.9142 12.2354C27.9142 12.8011 27.1842 15.2318 25.5593 16.9621C25.5593 16.9621 23.3188 14.9791 21.7028 14.9791C20.0856 14.9791 17.8445 16.9634 17.8445 16.9634C16.2202 15.2324 15.4877 12.8011 15.4877 12.2354L14.5762 12.1739C15.1559 17.3367 17.7346 21.186 21.7009 21.186C25.6513 21.186 28.2248 17.3681 28.8206 12.2354H27.9142Z" fill="#71491A"/>
<path d="M14.4665 10.5558L14.4486 10.4301C13.6285 9.61814 12.9816 10.5282 13.337 11.7615C13.6931 12.9955 13.7903 13.2225 14.1463 14.3263C14.5023 15.4307 15.0712 14.8002 15.0712 14.8002L15.061 14.7316C14.7146 13.4547 14.5126 12.0469 14.4665 10.5558Z" fill="#FCD4AF"/>
<path d="M28.9304 10.5557L28.9489 10.43C29.7684 9.61802 30.4153 10.5281 30.0599 11.7614C29.7038 12.9953 29.606 13.2224 29.2506 14.3261C28.8946 15.4305 28.3257 14.8001 28.3257 14.8001L28.3359 14.7315C28.6824 13.4546 28.8844 12.0468 28.9304 10.5557Z" fill="#FCD4AF"/>
<path d="M21.6981 0.916986C16.4124 0.916986 12.756 3.93644 13.6944 10.1222L13.7059 10.1479C13.9118 10.0805 14.1694 10.1536 14.4493 10.4301L14.4672 10.5558C14.4851 11.1304 14.5331 11.6884 14.5964 12.2361H15.4849C15.4849 12.2361 15.4011 10.8296 15.6063 9.26986C20.1294 9.99779 24.2511 7.10341 25.1895 5.13192C28.1907 6.66473 27.9113 12.2361 27.9113 12.2361H28.8018C28.865 11.6884 28.913 11.1304 28.9309 10.5558L28.9488 10.4301C29.2275 10.1543 29.4844 10.0818 29.6903 10.1479L29.7018 10.1222C30.6408 3.93644 26.9838 0.916986 21.6981 0.916986Z" fill="#71491A"/>
<path d="M21.6981 21.1862C20.1499 21.1862 18.8171 20.5942 17.7285 19.5719V28.8727H25.6676V19.5719C24.5784 20.5942 23.2456 21.1862 21.6981 21.1862Z" fill="#FCD4AF"/>
<path d="M27.4004 23.7314C27.4004 23.7314 28.9122 24.558 30.5486 24.9736C30.8899 25.0621 31.237 25.1288 31.5784 25.1705C32.0086 25.2225 32.4643 25.2597 32.9201 25.3212C34.561 25.5399 36.2127 26.0428 36.694 28.3503C37.3051 31.3063 37.8229 39.3943 37.8229 39.3943H21.6998H21.6973H5.57422C5.57422 39.3943 6.09199 31.3063 6.70308 28.3503C7.18442 26.0428 8.83616 25.5399 10.4777 25.3212C10.9334 25.2597 11.3886 25.2225 11.8188 25.1705C12.1601 25.1288 12.5072 25.0621 12.8492 24.9736C14.485 24.558 15.9967 23.7314 15.9967 23.7314L19.6492 27.1189L21.6986 28.3529L23.7479 27.1189L27.4004 23.7314Z" fill="white"/>
<path d="M23.7471 17.7029C23.7471 18.1332 22.8298 18.4814 21.6978 18.4814C20.5657 18.4814 19.6484 18.1332 19.6484 17.7029C19.6484 17.2719 20.5657 16.9236 21.6978 16.9236C22.8298 16.9236 23.7471 17.2719 23.7471 17.7029Z" fill="#FDE1BA"/>
<path d="M17.7288 20.8525L16.7048 21.3393L14.5762 28.5153L19.649 27.119L17.7288 22.6053V20.8525Z" fill="#F8F8F8"/>
<path d="M32.9199 39.3944L30.5433 34.424H12.8535L10.4775 39.3944H32.9199Z" fill="#00ED63"/>
<path d="M13.4282 36.9113C12.7762 37.01 12.1651 36.5579 12.0666 35.9037L10.4775 25.3215C10.9333 25.2599 11.3884 25.2227 11.8186 25.1708C12.16 25.1291 12.5071 25.0624 12.8491 24.9739L14.4382 35.5452C14.5366 36.2 14.0866 36.8125 13.4282 36.9113Z" fill="#3A97B7"/>
<path d="M25.6678 20.8526L26.6918 21.3394L28.8204 28.5154L23.7476 27.1192L25.6678 22.6054V20.8526Z" fill="#F8F8F8"/>
<path d="M13.7158 35.3257C13.758 35.6086 13.563 35.8735 13.2805 35.9158C12.998 35.9594 12.734 35.7638 12.6911 35.4797C12.6496 35.1968 12.8439 34.9313 13.1265 34.8896C13.4096 34.8467 13.673 35.0416 13.7158 35.3257Z" fill="white"/>
<path d="M29.9676 36.9113C30.6203 37.01 31.2314 36.5579 31.3298 35.9037L32.9196 25.3215C32.4638 25.2599 32.008 25.2227 31.5779 25.1708C31.2365 25.1291 30.8894 25.0624 30.5481 24.9739L28.9583 35.5452C28.8599 36.2 29.3105 36.8125 29.9676 36.9113Z" fill="#FBC508"/>
<path d="M29.6812 35.3257C29.6384 35.6086 29.8327 35.8735 30.1159 35.9158C30.3984 35.9594 30.6624 35.7638 30.7052 35.4797C30.7474 35.1968 30.5525 34.9313 30.2699 34.8896C29.9874 34.8467 29.7234 35.0416 29.6812 35.3257Z" fill="white"/>
<path d="M21.9572 34.4241H21.4395V28.3531H21.9572V34.4241Z" fill="#C8C7C5"/>
<path d="M20.9437 30.0091C20.9437 30.2964 20.7117 30.528 20.426 30.528C20.1402 30.528 19.9082 30.2964 19.9082 30.0091C19.9082 29.7218 20.1402 29.4896 20.426 29.4896C20.7117 29.4896 20.9437 29.7218 20.9437 30.0091Z" fill="#C8C7C5"/>
<path d="M20.9437 32.8008C20.9437 33.0875 20.7117 33.3203 20.426 33.3203C20.1402 33.3203 19.9082 33.0875 19.9082 32.8008C19.9082 32.5142 20.1402 32.282 20.426 32.282C20.7117 32.282 20.9437 32.5142 20.9437 32.8008Z" fill="#C8C7C5"/>
<path d="M33.2323 19.6641L24.8994 27.5367H25.733V39.408H40.6965V27.5367H41.53L33.2323 19.6641Z" fill="#134468"/>
<path d="M40.6966 39.408V27.5367H41.5301L33.2324 19.6641V39.408H40.6966Z" fill="#266185"/>
<path d="M38.1775 36.9772C38.1775 37.5409 37.7211 37.9995 37.1586 37.9995C36.596 37.9995 36.1396 37.5409 36.1396 36.9772C36.1396 36.4122 37.1586 34.6504 37.1586 34.6504C37.1586 34.6504 38.1775 36.4122 38.1775 36.9772Z" fill="white"/>
<path d="M38.8251 33.845H35.4922V32.7303H38.8251V33.845Z" fill="white"/>
<path d="M34.743 29.417H31.6875V28.1279H34.743V29.417Z" fill="white"/>
<path d="M33.7006 28.5121H32.729V26.3508H33.7006V28.5121Z" fill="white"/>
<path d="M33.6924 26.3508C33.6924 26.6157 33.479 26.8306 33.215 26.8306C32.951 26.8306 32.7368 26.6157 32.7368 26.3508C32.7368 26.0866 32.951 25.8724 33.215 25.8724C33.479 25.8724 33.6924 26.0866 33.6924 26.3508Z" fill="white"/>
<path d="M35.5755 26.9697L33.2148 26.5522V26.1507L35.5755 25.7332V26.9697Z" fill="white"/>
<path d="M30.854 26.9697L33.2146 26.5522V26.1507L30.854 25.7332V26.9697Z" fill="white"/>
<path d="M30.8251 39.408H28.7534V32.6463C28.7534 30.6408 30.3796 29.0092 32.3778 29.0092H34.5697C36.5679 29.0092 38.1934 30.6408 38.1934 32.6463V33.2472H36.123V32.6463C36.123 31.7862 35.4262 31.0871 34.5697 31.0871H32.3778C31.5212 31.0871 30.8251 31.7862 30.8251 32.6463V39.408Z" fill="white"/>
<path d="M0.781126 42.1844H0.779206L10.9364 28.0517L10.4883 27.7271L0 42.3203C0.249296 42.4999 0.601505 42.4332 0.781126 42.1844Z" fill="#D3D3D1"/>
</svg>
