<svg width="31" height="31" viewBox="0 0 31 31" fill="none" xmlns="http://www.w3.org/2000/svg">
<path d="M9.22312 13.2718L2.20884 14.7646C2.0792 14.7923 2.0513 14.9702 2.16597 15.0385L4.19365 16.2434C4.26252 16.2845 4.28622 16.3753 4.24642 16.446L0.769356 22.6457C0.740477 22.6971 0.744171 22.7612 0.778712 22.8086L4.32245 27.6896C4.3845 27.7748 4.51098 27.767 4.5627 27.6749L9.20695 19.3943C9.24685 19.3233 9.33475 19.2991 9.40378 19.3399L11.4315 20.5451C11.5461 20.6134 11.682 20.4993 11.6404 20.37L9.38922 13.3704C9.3663 13.2987 9.29485 13.2565 9.22312 13.2718Z" fill="#00ED63"/>
<path d="M8.16308 22.1151L5.02243 27.7146C4.96701 27.8135 5.03631 27.9373 5.14724 27.9373H12.6687C12.7483 27.9373 12.813 27.8707 12.813 27.7888V22.1892C12.813 22.1073 12.7483 22.0407 12.6687 22.0407H8.28793C8.23643 22.0407 8.18897 22.069 8.16308 22.1151Z" fill="#00ED63"/>
<path d="M16.1582 25.0533L20.9213 30.5602C21.0092 30.6621 21.1729 30.598 21.1729 30.4614V28.0513C21.1729 27.9694 21.2376 27.9031 21.3172 27.9031H28.2711C28.3288 27.9031 28.3809 27.8676 28.4038 27.8132L30.738 22.2136C30.7788 22.1156 30.7092 22.0065 30.6057 22.0065H21.3172C21.2376 22.0065 21.1729 21.9402 21.1729 21.8583V19.4482C21.1729 19.3117 21.0092 19.2475 20.9213 19.3494L16.1582 24.8563C16.1094 24.9123 16.1094 24.9973 16.1582 25.0533Z" fill="#00ED63"/>
<path d="M22.6991 12.8081L24.9503 5.80853C24.9918 5.67919 24.8559 5.5654 24.7413 5.6334L22.7136 6.83858C22.6446 6.87939 22.5567 6.85524 22.5168 6.78418L19.0398 0.584788C19.011 0.53344 18.9552 0.504569 18.898 0.511508L13.0199 1.2304C12.9172 1.24289 12.8603 1.35974 12.912 1.45189L17.5563 9.73246C17.5959 9.80324 17.5724 9.89401 17.5034 9.93509L15.4757 11.14C15.3611 11.2083 15.3889 11.3862 15.5186 11.4139L22.533 12.9067C22.6047 12.9219 22.6762 12.8798 22.6991 12.8081Z" fill="#00ED63"/>
<path d="M24.128 21.5767H30.4092C30.5203 21.5767 30.5896 21.4531 30.534 21.3541L26.7734 14.6489C26.7335 14.5779 26.6453 14.5537 26.5765 14.5945L21.8654 17.3943C21.7967 17.4354 21.7729 17.5262 21.8128 17.5969L24.0031 21.5026C24.029 21.5484 24.0765 21.5767 24.128 21.5767Z" fill="#00ED63"/>
<path d="M15.7888 7.44154L12.6484 1.84196C12.5928 1.74314 12.4542 1.74314 12.3987 1.84196L8.63804 8.54735C8.59813 8.61813 8.62186 8.70888 8.69062 8.74996L13.4017 11.5498C13.4705 11.5908 13.5587 11.5664 13.5986 11.4954L15.7888 7.59004C15.8147 7.54424 15.8147 7.48761 15.7888 7.44154Z" fill="#00ED63"/>
</svg>
