<svg width="39" height="27" viewBox="0 0 39 27" fill="none" xmlns="http://www.w3.org/2000/svg">
<path fill-rule="evenodd" clip-rule="evenodd" d="M7.48627 9.14963V1.97938H11.343V9.15276H7.48627V9.14963ZM24.3016 8.09665C24.0463 7.95563 23.9529 7.63284 24.093 7.37587C24.2331 7.11889 24.5537 7.02488 24.809 7.1659C25.3911 7.48869 25.9296 7.81461 26.4245 8.16246C26.9319 8.51659 27.3926 8.88952 27.8159 9.30632C28.5132 9.99263 29.0953 10.7886 29.5591 11.7758C30.0167 12.7442 30.3591 13.8943 30.5832 15.3014C30.6299 15.5897 30.4338 15.8623 30.1443 15.9093C29.8579 15.9563 29.5871 15.7589 29.5404 15.4675C29.3318 14.1607 29.0175 13.1045 28.6035 12.2271C28.1957 11.3653 27.6883 10.6695 27.0782 10.0647C26.7015 9.69178 26.2813 9.35333 25.8237 9.03368C25.3568 8.70775 24.8494 8.40064 24.3016 8.09665ZM18.8262 13.0701C18.655 12.835 18.7079 12.5028 18.9413 12.3305C19.1748 12.1581 19.5048 12.2114 19.676 12.4464C20.1024 13.0387 20.4728 13.6467 20.7437 14.2891C21.0238 14.9504 21.2012 15.6524 21.2292 16.4108C21.2386 16.7022 21.0114 16.9498 20.7219 16.9592C20.4324 16.9686 20.1865 16.7398 20.1771 16.4484C20.1522 15.8341 20.0059 15.2575 19.7725 14.7059C19.5328 14.1324 19.2059 13.5934 18.8262 13.0701ZM19.4954 9.31886C19.2246 9.21544 19.0845 8.91146 19.1873 8.63568C19.29 8.36303 19.5919 8.22201 19.8658 8.32543C21.3102 8.86758 22.6674 9.63851 23.6946 10.7291C24.588 11.6755 25.2261 12.8507 25.4595 14.3111C25.5062 14.5994 25.3101 14.872 25.0206 14.919C24.7343 14.9661 24.4634 14.7686 24.4167 14.4772C24.2206 13.2456 23.6821 12.2553 22.9319 11.4593C22.0199 10.5003 20.8028 9.81087 19.4954 9.31886ZM13.1391 22.8696C13.6776 23.0326 14.2597 23.2081 14.7889 23.3491C15.2589 23.4745 15.9811 23.2049 16.7406 22.9229C17.6869 22.5719 18.6705 22.2084 19.8503 22.2366C20.7405 22.2585 21.4907 22.6691 22.2471 23.0859C22.7234 23.3491 23.2059 23.6123 23.4736 23.6217C23.7817 23.6311 24.2362 23.3616 24.6907 23.0921C25.4346 22.6503 26.1755 22.2115 27.2089 22.1739C28.3171 22.1363 29.1762 22.5218 30.0291 22.901C30.5147 23.1172 30.9972 23.3334 31.4019 23.3648C31.7816 23.3961 32.2921 23.0671 32.787 22.7505C33.475 22.3055 34.1505 21.8731 35.0407 21.7728C36.0959 21.6568 37.2508 22.1551 38.2313 22.5813L38.2562 22.5938C38.2562 23.6029 38.2562 24.6152 38.2562 25.6243C38.0446 25.5616 37.8267 25.477 37.6025 25.3861C37.4469 25.3203 37.285 25.2513 37.1232 25.1824C36.4539 24.8941 35.6633 24.5494 35.3489 24.5838C35.0967 24.612 34.6983 24.869 34.2936 25.1291C34.1442 25.2231 33.9948 25.3203 33.8423 25.4143C33.089 25.875 32.2734 26.2698 31.1964 26.1852C30.3217 26.1194 29.6089 25.7998 28.8929 25.477L28.8307 25.4488C28.2953 25.2106 27.7599 24.9787 27.3023 24.9912C27.0222 25.0006 26.6206 25.2294 26.2159 25.4676L26.1226 25.5209C25.3195 26.0003 24.5101 26.4767 23.3802 26.4359C22.4557 26.4015 21.6806 25.9784 20.9149 25.5553L20.8184 25.5021C20.3919 25.267 19.9841 25.0539 19.788 25.0476C19.1904 25.032 18.4993 25.2733 17.827 25.524L17.7118 25.5679C16.5383 26.0035 15.4208 26.4171 14.0947 26.0693C13.3819 25.8813 12.8434 25.7183 12.3484 25.5679L12.3329 25.5616C11.0815 24.891 8.33295 24.916 7.11896 25.5616L7.10339 25.5679C6.60846 25.7183 6.06995 25.8813 5.35712 26.0693C4.03107 26.4171 2.91046 26.0035 1.74005 25.5679L1.62488 25.524C1.0708 25.3328 0.510498 25.1354 0 25.0758V22.2429C1.00232 22.293 1.86456 22.6126 2.69879 22.9229C3.4552 23.2049 4.18048 23.4745 4.65051 23.3491C5.17657 23.2081 5.76178 23.0326 6.30029 22.8696C9.45978 21.9138 9.9765 21.9138 13.1391 22.8696ZM12.7811 8.19694V3.34887C24.2393 2.44319 31.9871 6.63001 32.6283 15.2356C33.0361 16.2729 33.0267 17.0187 32.6812 17.5327L32.7808 17.47C33.4688 17.025 34.1442 16.5925 35.0345 16.4922C36.0897 16.3763 37.2446 16.8746 38.2251 17.3008L38.25 17.3133C38.25 18.3224 38.25 19.3346 38.25 20.3437C38.0383 20.2811 37.8204 20.1964 37.5963 20.1056C37.4407 20.0398 37.2788 19.9708 37.1169 19.9019C36.4477 19.6136 35.657 19.2688 35.3427 19.3033C35.0905 19.3315 34.6921 19.5885 34.2874 19.8486C34.138 19.9426 33.9886 20.0398 33.8361 20.1338C33.0828 20.5944 32.2672 20.9893 31.1902 20.9047C30.3155 20.8389 29.6027 20.5192 28.8867 20.1964L28.8245 20.1682C28.2891 19.9301 27.7537 19.6982 27.2961 19.7107C27.0159 19.7201 26.6144 19.9489 26.2097 20.187L26.1163 20.2403C25.3132 20.7198 24.5039 21.1961 23.374 21.1554C22.4495 21.1209 21.6744 20.6979 20.9086 20.2748L20.8121 20.2215C20.3857 19.9865 19.9779 19.7734 19.7818 19.7671C19.1841 19.7514 18.4931 19.9927 17.8207 20.2435L17.7056 20.2905C16.532 20.7261 15.4146 21.1397 14.0885 20.7919C13.3757 20.6038 12.8372 20.4409 12.3422 20.2905L12.3267 20.2842C11.094 19.6762 8.3454 19.6919 7.11273 20.2842L7.09717 20.2905C6.60223 20.4409 6.06372 20.6038 5.35089 20.7919C4.02484 21.1397 2.90424 20.7261 1.73383 20.2905L1.61865 20.2466C1.0708 20.046 0.510498 19.8486 0 19.789V16.956C1.00232 17.0062 1.86456 17.3258 2.69879 17.6361C3.4552 17.9181 4.18048 18.1876 4.65051 18.0623C5.17657 17.9213 5.76178 17.7458 6.30029 17.5828C7.09094 17.3446 7.79755 17.1315 8.4668 16.9968C8.89014 16.8902 9.30414 16.8495 9.72125 16.8526C10.1384 16.8464 10.5493 16.8902 10.9757 16.9968C11.645 17.1284 12.3516 17.3446 13.1422 17.5828C13.6807 17.7458 14.2628 17.9213 14.792 18.0623C15.262 18.1876 15.9842 17.9181 16.7437 17.6361C17.3694 17.4042 18.0168 17.166 18.7234 17.0375C16.946 13.9099 17.9235 8.63881 12.7811 8.19694ZM0.0342407 9.14963V1.97938H4.11511V9.15276H0.0342407V9.14963ZM5.05518 9.47555V1.51244C5.05518 1.15518 5.34778 0.860596 5.70264 0.860596C6.0575 0.860596 6.3501 1.15518 6.3501 1.51244V9.47555C6.3501 9.83281 6.0575 10.1274 5.70264 10.1274C5.34467 10.1274 5.05518 9.83281 5.05518 9.47555Z" fill="url(#paint0_linear_1041_507)"/>
<defs>
<linearGradient id="paint0_linear_1041_507" x1="19.1281" y1="0.860596" x2="19.1281" y2="26.4384" gradientUnits="userSpaceOnUse">
<stop stop-color="#00EDA9"/>
<stop offset="1" stop-color="#266185"/>
</linearGradient>
</defs>
</svg>
