<svg width="42" height="36" viewBox="0 0 42 36" fill="none" xmlns="http://www.w3.org/2000/svg">
<path d="M26.8571 9.62877H21.1911L17.6973 19.6932H20.8135L17.6973 28.8846L25.5352 17.4412H22.2774L26.8571 9.62877Z" fill="#2E779A"/>
<path d="M21.3433 31.4431C14.8278 31.4431 9.1866 26.6181 8.22087 20.2194L8.16252 19.8326L11.46 20.195L8.74283 16.8216V16.8219L6.4741 14.005L0.25 18.9633L4.08576 19.3849L4.10561 19.6327C4.81779 28.5015 12.3895 35.4491 21.3433 35.4491C30.7065 35.4491 38.3561 28.012 38.6342 18.7657L36.8635 20.964C36.7877 21.0586 36.6741 21.1125 36.5525 21.1125C36.5522 21.1125 36.5522 21.1125 36.5522 21.1125C36.5181 21.1125 36.4851 21.1041 36.4521 21.0957C36.4477 21.0945 36.4431 21.0945 36.4387 21.0934C36.3897 21.0786 36.343 21.0574 36.3027 21.0255L34.5399 19.6211C33.8447 26.2954 28.1556 31.4431 21.3433 31.4431Z" fill="#00ED63"/>
<path d="M21.3197 4.41748C27.3137 4.41748 32.623 8.35904 34.2307 14.0025L34.3271 14.3411L30.3634 14.7694L34.1231 17.7146V17.7143L36.6506 19.6943L41.6876 13.5448L38.3962 13.9016L38.3346 13.6431C36.4862 5.86833 29.4893 0.438457 21.3197 0.438457C13.002 0.438457 5.7699 6.30756 4.17578 14.2132L6.08053 12.7211C6.16364 12.6557 6.2718 12.6303 6.37584 12.6416C6.47987 12.6528 6.57978 12.7006 6.64668 12.7822L8.22724 14.712C9.5629 8.70864 14.9659 4.41748 21.3197 4.41748Z" fill="#9BF443"/>
</svg>
