<svg width="27" height="30" viewBox="0 0 27 30" fill="none" xmlns="http://www.w3.org/2000/svg">
<path d="M20.7824 1.84539C19.4931 2.15272 18.2189 3.03679 17.5037 4.04309C17.4442 4.04309 16.7446 5.1367 16.5365 6.06516C16.4694 6.30713 16.4463 6.47228 16.4463 6.47228C16.3112 7.35635 16.3485 6.04221 16.3485 19.3726C16.3485 20.2187 16.0219 20.8483 15.4024 21.2993C15.4024 21.2993 14.9569 21.7129 13.8425 21.7129L13.1106 21.6995C12.4337 21.5912 12.159 21.3677 12.159 21.3677C12.159 21.3677 12.0819 21.3412 11.7593 21.0534C11.5769 20.8728 11.4464 20.6538 11.4464 20.6538C10.9821 19.9703 11.1097 19.7632 11.1097 14.3695C11.0976 14.6504 11.1863 13.3203 10.7306 12.2122C10.6359 11.9428 10.524 11.7338 10.3834 11.4524C8.19389 7.76844 5.08308 8.40455 0.5625 8.40455V10.2231V12.0416C6.18235 12.0416 5.70553 12.1045 5.70553 12.1045C6.09665 12.1997 6.30834 12.324 6.61176 12.545C6.61176 12.545 6.81035 12.7086 6.96508 12.9107C7.1304 13.1078 7.22919 13.3422 7.22919 13.3418C7.62586 14.0053 7.33051 17.6558 7.46306 20.0595C7.60167 21.5243 8.32041 22.5661 8.32041 22.5661C9.06434 23.7964 10.1949 24.442 10.1949 24.442C11.5547 25.2976 12.7407 25.35 13.8425 25.35C16.2346 25.35 17.536 24.2604 17.536 24.2604C18.9129 23.2301 19.735 21.9674 19.984 20.1489C20.0097 19.9009 20.0137 19.7348 20.0127 19.7348C20.0636 18.6756 19.9618 7.73951 20.0616 7.11637C20.0616 7.11637 20.1417 6.61147 20.4618 6.20037C20.7163 5.82968 21.2203 5.52685 21.2304 5.54431C21.2304 5.54431 21.5999 5.32129 22.2082 5.29535V5.29285C22.2652 5.28886 25.818 5.29036 25.875 5.29036C25.875 2.56682 25.875 4.34543 25.875 1.65332C22.4008 1.65332 21.6709 1.59045 20.7824 1.84539Z" fill="#00ED63"/>
<path d="M20.7824 1.83733C19.4447 2.14972 18.1932 3.03994 17.5037 3.99077C17.4442 3.99077 16.7446 5.06236 16.5365 5.97213C16.4694 6.20922 16.4463 6.37105 16.4463 6.37105C16.3081 7.25589 16.3485 6.0699 16.3485 18.3921C16.3485 19.1704 16.4699 20.1369 15.4024 20.8995C15.4024 20.8995 15.3535 20.9396 15.2689 20.9836C14.8117 21.2989 14.2507 21.3048 13.8425 21.3048L13.1106 21.2916C12.4448 21.1875 12.159 20.9665 12.159 20.9665C12.159 20.9665 12.1016 20.9391 12.028 20.879C11.782 20.726 11.4464 20.3168 11.4464 20.2669C11.0094 19.6368 11.1097 19.5102 11.1097 14.1092C11.0714 15.019 11.7513 9.74712 6.54675 8.42035C5.82298 8.21747 5.18539 8.26441 0.5625 8.26441V10.0463C5.91673 10.0463 6.27004 9.85222 7.77707 10.9438C7.77707 10.9438 8.68078 11.66 9.00991 12.6202C9.35314 13.4067 9.27199 13.9689 9.27199 18.6131C9.26343 19.0634 9.29216 19.5131 9.29216 19.5131C9.39246 20.5167 9.88288 21.2036 9.88288 21.2036C10.396 22.0376 11.1772 22.4727 11.1772 22.4727C12.1983 23.0652 12.9473 23.1449 14.4801 23.0681C14.6534 23.0505 14.7684 23.03 14.7684 23.03C14.7684 23.0661 15.6947 22.8486 16.2265 22.5044C16.3782 22.4204 16.4694 22.35 16.4694 22.35C17.6095 21.5213 18.1609 20.3324 18.1771 19.2931C18.1771 19.2931 18.1559 7.30819 18.2547 6.68636C18.2547 6.68636 18.3787 5.81521 18.983 5.0477C18.983 5.0477 19.2506 4.67518 19.612 4.38822C19.9618 4.10713 20.2914 3.91744 20.3776 3.88322C20.3776 3.88322 21.0167 3.49361 22.1599 3.43641C22.1599 3.43641 21.9517 3.43103 25.875 3.43103V1.64913C22.1135 1.64913 21.5928 1.60952 20.7824 1.83733Z" fill="#3A97B7"/>
<path d="M1.6875 12.9338H0V7.29014H1.6875V12.9338Z" fill="#9BF443"/>
<path d="M26.4375 6.16138H24.75V0.517683H26.4375V6.16138Z" fill="#9BF443"/>
<path d="M15.75 28.1421C15.75 29.0934 14.9941 29.865 14.0627 29.865C13.1309 29.865 12.375 29.0934 12.375 28.1421C12.375 27.1909 14.0627 24.2213 14.0627 24.2213C14.0627 24.2213 15.75 27.1909 15.75 28.1421Z" fill="#3A97B7"/>
<path d="M15.75 28.1421C15.75 27.1909 14.0625 24.2213 14.0625 24.2213V29.865C14.994 29.865 15.75 29.0934 15.75 28.1421Z" fill="#3EA2C1"/>
<path d="M14.2925 22.5281C14.3408 22.5858 14.3945 22.6419 14.4298 22.7035L14.5237 22.8963C14.5651 23.0257 14.5985 23.1573 14.61 23.2941L14.625 23.4513L14.4203 23.3345C14.3197 23.2763 14.1497 23.2198 13.9926 23.1894C13.839 23.1569 13.6513 23.1391 13.5663 23.1734L13.5221 23.202L13.4983 23.2324L13.5166 23.2897L13.5636 23.3136C13.6275 23.3432 13.7193 23.3623 13.8117 23.4278C13.8627 23.453 13.8825 23.5051 13.9022 23.5477C13.9035 23.5876 13.892 23.6276 13.8831 23.6662L13.8702 23.7175L13.7757 23.7205L13.6152 23.7253L13.4636 23.7435L13.3222 23.7791L13.1991 23.836C13.1318 23.8846 13.0685 23.9407 13.0298 24.008C12.9917 24.0753 12.9713 24.1469 12.9502 24.2212C12.921 24.0757 12.9326 23.9111 13.0883 23.7744L13.229 23.6888L13.3983 23.6285L13.5799 23.5915L13.7655 23.5716L13.6581 23.6258L13.6622 23.5698L13.6261 23.5364C13.5969 23.5134 13.5058 23.4912 13.4187 23.4556C13.3711 23.4313 13.3208 23.4196 13.2712 23.3583C13.2154 23.2949 13.2399 23.2819 13.229 23.2489C13.2379 23.1734 13.2446 23.1599 13.2854 23.1134C13.3154 23.0739 13.3745 23.0409 13.433 23.0205C13.5554 22.9793 13.6764 22.9788 13.7811 22.9862C13.8872 22.994 13.9858 23.0097 14.0783 23.0344C14.2633 23.0852 14.4373 23.1339 14.5869 23.2494L14.3979 23.2893C14.4108 23.1656 14.4047 23.0379 14.3897 22.9098L14.3605 22.72C14.3448 22.6562 14.3115 22.5932 14.2925 22.5281Z" fill="#9BF443"/>
</svg>
