<svg width="38" height="38" viewBox="0 0 38 38" fill="none" xmlns="http://www.w3.org/2000/svg">
<path d="M36.6107 17.0818C35.1725 17.0138 33.5289 18.6083 32.916 19.0957C32.4596 19.458 31.1227 20.7732 30.1055 21.4512C30.0125 21.5134 29.8904 21.5123 29.7999 21.4483C29.7094 21.3815 29.6703 21.2692 29.7012 21.1632C30.2568 19.2777 30.7492 17.6192 31.068 16.5483L31.0753 16.5507L35.2747 6.81236C35.4395 6.4287 35.4434 5.99666 35.2856 5.61185C35.1268 5.22589 34.8193 4.9177 34.4303 4.75583L34.1807 4.65099C33.3709 4.31342 32.4363 4.68497 32.0923 5.48281L28.2742 14.3351C28.2242 14.4532 28.0964 14.5172 27.9709 14.4884L27.7418 14.4377C27.6703 14.4204 27.6079 14.3755 27.5711 14.3127C27.5343 14.2499 27.5256 14.1756 27.5473 14.1059L30.9359 3.18491C31.0594 2.78801 31.0168 2.35826 30.8184 1.99016C30.6198 1.62379 30.2811 1.34901 29.8765 1.22746L29.5382 1.12607C28.6971 0.87318 27.8074 1.33863 27.5505 2.16701L24.0776 13.3575C24.0372 13.4889 23.9002 13.5678 23.765 13.5361C23.7078 13.5229 23.6584 13.4889 23.628 13.4405C23.5976 13.3921 23.588 13.3339 23.6015 13.2786L26.1766 2.60712C26.2739 2.20157 26.2042 1.77529 25.9828 1.42101C25.7611 1.06674 25.4056 0.813274 24.9942 0.717648L24.6502 0.636997C23.794 0.437683 22.9355 0.957283 22.732 1.80006L20.1245 12.6058C20.1183 12.6317 20.1011 12.6519 20.0804 12.6663C20.0742 12.6697 20.0664 12.6697 20.06 12.6732C20.0399 12.6801 20.0193 12.6882 19.9971 12.6836L19.9619 12.6743C19.9087 12.6634 19.8737 12.6139 19.8804 12.5609L20.5811 7.00131L20.7541 5.62798C20.8063 5.21495 20.6895 4.7996 20.4294 4.47125C20.215 4.19992 19.916 4.01328 19.5823 3.92688L19.5818 3.92572C19.5119 3.90729 19.4424 3.88713 19.3692 3.87849L19.0177 3.83529C18.9514 3.8278 18.8851 3.82318 18.8202 3.82318C18.7983 3.82318 18.777 3.82895 18.7551 3.8301C18.7082 3.83125 18.6627 3.83644 18.617 3.8422C18.5617 3.84911 18.5073 3.85775 18.4536 3.87157C18.4102 3.88137 18.3676 3.89289 18.3252 3.90729C18.2725 3.92342 18.2216 3.94474 18.1709 3.96605C18.1311 3.98391 18.0924 4.00177 18.0548 4.0225C18.0054 4.049 17.9592 4.07953 17.913 4.11007C17.8783 4.13483 17.844 4.15845 17.8113 4.18437C17.7668 4.22009 17.7267 4.25984 17.6865 4.30016C17.6579 4.32954 17.628 4.35662 17.6014 4.38772C17.5631 4.43266 17.5302 4.4822 17.497 4.53174C17.4753 4.56342 17.4513 4.59511 17.4326 4.62852C17.3996 4.68613 17.3743 4.74776 17.3491 4.80997C17.3368 4.8405 17.3208 4.86816 17.3098 4.89984C17.2778 4.99547 17.2536 5.09455 17.2408 5.19939L16.7073 9.43285L16.4001 11.869C16.4001 11.869 14.5427 24.623 13.6883 28.7107C13.3802 30.1814 11.75 34.1055 11.75 34.1055L25.7624 37.2784C25.7624 37.2784 26.0175 34.17 26.2753 33.1729C26.5059 32.2805 26.8488 31.0363 27.2497 29.6186C27.9766 29.0604 30.6891 26.9589 31.5759 26.0038C32.1985 25.3333 37.0692 20.17 37.6854 19.2812C38.3016 18.3935 38.0477 17.148 36.6107 17.0818Z" fill="#00ED63"/>
<path d="M15.9781 11.7985L16.4375 7.99899L15.0415 1.79302C14.8547 0.960785 14.046 0.442486 13.2352 0.634361L12.9092 0.712135C12.5194 0.8041 12.1818 1.05162 11.9697 1.39961C11.7579 1.74533 11.6893 2.16599 11.7795 2.56621L14.1485 13.0968C14.1612 13.1525 14.1519 13.2104 14.1221 13.258C14.0934 13.3057 14.0462 13.3387 13.993 13.3511C13.8644 13.3807 13.7356 13.3035 13.6975 13.1735L10.4829 2.12454C10.2451 1.30764 9.40632 0.84214 8.60932 1.08568L8.28852 1.18446C7.90568 1.30083 7.58316 1.56935 7.39318 1.92983C7.20314 2.29088 7.16031 2.71324 7.27492 3.10722L10.4117 13.8887C10.4317 13.9574 10.4228 14.0307 10.3875 14.0925C10.3523 14.155 10.2937 14.1981 10.2254 14.2135L10.0092 14.2634C9.89016 14.2912 9.76952 14.2271 9.72281 14.1118L6.16679 5.36207C5.84623 4.57525 4.96469 4.20285 4.19664 4.53097L3.95993 4.63146C3.59114 4.78927 3.29823 5.09072 3.14648 5.46993C2.9943 5.84915 2.99516 6.27491 3.14929 6.65413L7.06025 16.2759L7.06695 16.2725C7.36158 17.3312 7.8173 18.9678 8.33091 20.8299C8.35963 20.9349 8.32183 21.0456 8.23578 21.1092C8.1495 21.1722 8.03429 21.1733 7.9474 21.1137C6.98936 20.437 5.73253 19.133 5.30343 18.772C4.72625 18.2883 3.1815 16.7073 1.822 16.7647C0.462075 16.8226 0.214344 18.0454 0.791735 18.927C1.36891 19.8063 5.94308 24.9235 6.52761 25.5882C7.3603 26.5351 9.91218 28.6231 10.597 29.1789C10.9671 30.5765 11.2838 31.8055 11.4963 32.6866C11.5454 32.8898 11.5936 33.1822 11.6392 33.516C11.8342 33.0227 13.1608 29.6444 13.4196 28.3546C14.2159 24.3876 15.9617 11.9138 15.9781 11.7985Z" fill="#20614D"/>
</svg>
