<svg width="33" height="40" viewBox="0 0 33 40" fill="none" xmlns="http://www.w3.org/2000/svg">
<path d="M21.6721 9.2096C19.9975 9.0217 18.3399 8.92162 16.6836 8.91115V14.2186H21.9735C21.9634 12.5553 21.8628 10.8911 21.6721 9.2096Z" fill="#00ED63"/>
<path d="M21.9735 15.0352H16.6836V20.3427C18.3399 20.3322 19.9975 20.2316 21.6721 20.0442C21.8628 18.3636 21.9634 16.698 21.9735 15.0352Z" fill="#00ED63"/>
<path d="M21.5666 20.7509C19.9285 20.9421 18.3049 21.0437 16.6836 21.0557V24.8336C18.3122 24.7867 19.8401 24.3152 21.1717 23.5198C21.3263 22.5908 21.4587 21.669 21.5666 20.7509Z" fill="#00ED63"/>
<path d="M21.1717 5.73499C19.8401 4.93867 18.3122 4.46769 16.6836 4.42026V8.19964C18.3049 8.21114 19.9285 8.31224 21.5666 8.50293C21.4587 7.58683 21.3263 6.6645 21.1717 5.73499Z" fill="#00ED63"/>
<path d="M26.4495 14.627H22.6801C22.6702 16.3896 22.5697 18.1547 22.3804 19.9344C23.291 19.8173 24.2063 19.6732 25.1296 19.5053C25.9293 18.0595 26.4028 16.3994 26.4495 14.627Z" fill="#00ED63"/>
<path d="M10.8758 20.0425C12.5518 20.2335 14.212 20.3345 15.8695 20.3427V15.0352H10.5796C10.589 16.6975 10.6888 18.3625 10.8758 20.0425Z" fill="#00ED63"/>
<path d="M21.9736 6.05326C22.1114 6.88924 22.2322 7.71982 22.3316 8.5465C23.1568 8.64781 23.9872 8.77066 24.822 8.91113C24.0663 7.78149 23.0966 6.80995 21.9736 6.05326Z" fill="#00ED63"/>
<path d="M25.1296 9.34034C24.2063 9.17238 23.291 9.02834 22.3804 8.91115C22.5697 10.6919 22.6702 12.456 22.6801 14.2186H26.4495C26.4028 12.4467 25.9293 10.7856 25.1296 9.34034Z" fill="#00ED63"/>
<path d="M10.1727 19.9344C9.97793 18.1547 9.875 16.3896 9.86533 14.627H6.10352C6.15087 16.4067 6.63988 18.0741 7.46376 19.5233C8.37365 19.684 9.27582 19.8217 10.1727 19.9344Z" fill="#00ED63"/>
<path d="M10.1727 8.91115C9.27582 9.02394 8.37365 9.16164 7.46376 9.32228C6.63988 10.7715 6.15087 12.4394 6.10352 14.2186H9.86533C9.875 12.456 9.97793 10.6919 10.1727 8.91115Z" fill="#00ED63"/>
<path d="M10.5798 22.7922C10.441 22.0737 10.3194 21.3595 10.2181 20.6492C9.39327 20.5629 8.5654 20.4606 7.73145 20.3426C8.49295 21.3036 9.46116 22.1353 10.5798 22.7922Z" fill="#00ED63"/>
<path d="M10.5796 14.2186H15.8695V8.91115C14.212 8.91934 12.5518 9.0203 10.8758 9.21177C10.6888 10.8922 10.589 12.5559 10.5796 14.2186Z" fill="#00ED63"/>
<path d="M24.822 20.3426C23.9872 20.463 23.1568 20.5683 22.3316 20.6551C22.2322 21.3636 22.1114 22.0762 21.9736 22.7922C23.0966 22.1438 24.0663 21.3107 24.822 20.3426Z" fill="#00ED63"/>
<path d="M10.5798 6.46153C9.46116 7.11825 8.49295 7.94967 7.73145 8.91113C8.5654 8.79236 9.39327 8.68963 10.2181 8.6038C10.3194 7.89375 10.441 7.17937 10.5798 6.46153Z" fill="#00ED63"/>
<path d="M11.3648 23.459C12.6959 24.2922 14.231 24.7857 15.8698 24.8336V21.0571C14.2484 21.048 12.6247 20.946 10.9868 20.7509C11.0897 21.6484 11.217 22.5496 11.3648 23.459Z" fill="#00ED63"/>
<path d="M10.9868 8.50293C12.6247 8.30888 14.2479 8.20683 15.8698 8.19868V4.42026C14.231 4.46961 12.6959 4.96263 11.3648 5.79536C11.217 6.70379 11.0897 7.60648 10.9868 8.50293Z" fill="#00ED63"/>
<path d="M22.9905 5.23682L23.4427 3.44434L25.2285 2.9906L23.4427 2.53735L22.9905 0.745877L22.5383 2.53735L20.7524 2.9906L22.5383 3.44434L22.9905 5.23682Z" fill="#2E779A"/>
<path d="M25.1442 5.89256L25.4316 6.86987L25.7193 5.89256L26.8562 5.64507L25.7193 5.39798L25.4316 4.42027L25.1442 5.39798L24.0078 5.64507L25.1442 5.89256Z" fill="#2E779A"/>
<path d="M29.9193 12.7117C28.972 13.1872 29.2887 14.7094 29.2887 14.7094C28.475 14.8408 28.2004 15.6369 27.9187 16.8051C27.2137 19.7191 28.2542 23.1973 28.0618 24.4253C28.4861 23.9919 28.9515 23.5135 29.4135 22.9923C29.5621 22.8237 29.7174 22.6507 29.85 22.4722C29.8838 22.4291 29.916 22.3845 29.9443 22.3413C29.9715 22.2982 29.982 22.284 30.0109 22.2202C30.0203 22.1683 30.0419 22.0467 30.0464 21.9452C30.0752 21.5138 30.0625 21.0466 30.0453 20.5873C30.0308 20.1225 30.0164 19.6583 30.002 19.2033C29.9931 18.7445 29.9837 18.293 29.9743 17.8567C29.9754 17.4194 29.9754 16.9978 29.9765 16.5973C29.9865 16.1933 30.0098 15.8036 30.0597 15.4491C30.1273 15.0932 30.1884 14.7672 30.3104 14.4903C30.4252 14.2147 30.5622 13.9829 30.7125 13.8147C30.8595 13.6436 31.0254 13.5466 31.1452 13.5069C31.265 13.4647 31.3326 13.4686 31.3326 13.4686C31.3326 12.5862 30.4746 12.4332 29.9193 12.7117Z" fill="#2E779A"/>
<path d="M32.16 14.5665C32.0366 13.6136 31.0851 13.8319 31.0851 13.8319C31.0851 13.8319 31.028 13.841 30.9439 13.9023C30.8616 13.9613 30.7583 14.0726 30.669 14.2392C30.4889 14.5746 30.3996 15.124 30.3823 15.7839C30.3791 16.1155 30.388 16.4709 30.4141 16.8562C30.4347 17.2435 30.4557 17.6531 30.4777 18.0755C30.5123 18.9224 30.5436 19.8263 30.5385 20.7349C30.5282 21.1902 30.5212 21.6441 30.4609 22.1098C30.4408 22.2326 30.4258 22.3353 30.3706 22.4971C30.3543 22.5361 30.3103 22.6184 30.2771 22.6707C30.2449 22.7221 30.2112 22.7683 30.1771 22.8154C30.0434 22.9999 29.904 23.165 29.7656 23.3273C29.2036 23.9647 28.6575 24.5295 28.1717 24.999C27.9178 25.2454 27.6849 25.4671 27.4769 25.6622C25.7647 27.3568 21.9484 30.3226 21.7427 29.8758C21.0862 28.4462 26.2706 26.3168 27.411 24.0137C28.449 21.9143 25.4116 22.8196 24.9333 23.1398C23.3656 24.1869 21.3106 25.2611 19.4006 26.7764C15.0074 30.264 18.2298 39.1229 18.2298 39.1229C18.5099 36.7397 29.1124 31.9096 32.204 25.7768C32.925 24.3463 32.3335 15.8938 32.16 14.5665Z" fill="#2E779A"/>
<path d="M2.17902 13.8146C2.31161 13.9828 2.43435 14.2146 2.53589 14.4901C2.64433 14.7671 2.69903 15.093 2.75867 15.4489C2.80353 15.8033 2.82423 16.193 2.83261 16.5969C2.8331 16.9974 2.83409 17.419 2.83508 17.8562C2.82719 18.2925 2.81832 18.744 2.80994 19.2028C2.79762 19.6577 2.7848 20.1219 2.77198 20.5866C2.75769 21.0459 2.74537 21.5131 2.771 21.9444C2.77395 22.0459 2.79466 22.1675 2.80206 22.2194C2.8272 22.2832 2.83705 22.2974 2.8617 22.3405C2.88585 22.3837 2.91493 22.4283 2.9445 22.4714C3.06428 22.6498 3.20033 22.8229 3.33441 22.9915C3.74402 23.5126 4.15855 23.991 4.53415 24.4253C4.36311 23.1964 5.2893 19.7185 4.66182 16.8048C4.41043 15.6367 4.16743 14.8406 3.44383 14.7092C3.44383 14.7092 3.72577 13.1872 2.88437 12.7117C2.38998 12.4333 1.62744 12.5862 1.62744 13.4685C1.62744 13.4685 1.68857 13.4646 1.79553 13.5068C1.90102 13.5465 2.0484 13.6435 2.17902 13.8146Z" fill="#2E779A"/>
<path d="M13.498 26.7764C11.5379 25.2611 9.42754 24.1869 7.82008 23.1398C7.32969 22.8196 4.2117 21.9143 5.27694 24.0137C6.44774 26.3168 11.7682 28.4462 11.0945 29.8758C10.8838 30.3235 6.96405 27.3549 5.20784 25.6612C4.99576 25.4667 4.75679 25.2454 4.49576 24.999C3.99721 24.5295 3.43723 23.9647 2.86047 23.3273C2.71891 23.165 2.57689 22.9999 2.43822 22.8154C2.40367 22.7683 2.36912 22.7221 2.33601 22.6707C2.3005 22.6184 2.25683 22.5361 2.24052 22.4971C2.18294 22.3353 2.16855 22.2326 2.14743 22.1098C2.08458 21.6441 2.07738 21.1902 2.06682 20.7349C2.06203 19.8263 2.09465 18.9224 2.13016 18.0755C2.15319 17.6531 2.1743 17.2435 2.19446 16.8562C2.22229 16.4709 2.2314 16.1155 2.2266 15.7839C2.21029 15.124 2.11817 14.5746 1.93343 14.2392C1.84226 14.0726 1.73669 13.9613 1.65176 13.9023C1.56587 13.841 1.50637 13.8319 1.50637 13.8319C1.50637 13.8319 0.531334 13.6136 0.402257 14.5665C0.225197 15.8938 -0.381315 24.3463 0.358116 25.7768C3.53129 31.9096 14.4121 36.7397 14.7005 39.1229C14.7005 39.1229 18.0075 30.264 13.498 26.7764Z" fill="#2E779A"/>
</svg>
