<svg width="38" height="40" viewBox="0 0 38 40" fill="none" xmlns="http://www.w3.org/2000/svg">
<path d="M22.9044 35.8855C21.5658 35.8855 20.3069 35.3906 19.3596 34.4927C18.6225 33.7939 17.7437 32.5308 17.7437 30.4868V16.5211H20.7855V30.4868C20.7855 31.2557 21.009 31.8571 21.4499 32.2742C21.8236 32.6296 22.3546 32.8329 22.9044 32.8329C23.8902 32.8329 24.9444 32.2167 24.9444 30.4868C24.9444 26.347 25.5452 23.9014 26.8929 22.557C28.1909 21.2609 29.862 21.2707 31.2097 21.2763L31.5359 21.2784V24.3304L31.1929 24.329C30.0709 24.3219 29.4212 24.3388 29.0376 24.7208C28.5584 25.2002 27.9862 26.5888 27.9862 30.4868C27.9862 34.0308 25.4306 35.8855 22.9044 35.8855Z" fill="#2E779A"/>
<path d="M21.6477 18.1741H16.8831L15.0562 14.8677H23.4732L21.6477 18.1741Z" fill="#3A97B7"/>
<path d="M36.4038 5.15103C36.4038 10.5455 32.0444 14.9194 26.6677 14.9194H11.5571C6.18051 14.9194 1.82178 10.5455 1.82178 5.15103V0.775701H36.4038V5.15103Z" fill="#266185"/>
<path d="M26.6677 14.9194C32.045 14.9194 36.4038 10.5455 36.4038 5.15103V0.775701H19.2637V14.9194H26.6677Z" fill="#266185"/>
<path d="M37.9758 1.9969C37.9758 2.33195 37.7013 2.60742 37.3666 2.60742H0.858501C0.523859 2.60742 0.25 2.33195 0.25 1.9969V1.38638C0.25 1.05062 0.523859 0.775835 0.858501 0.775835H37.3666C37.7013 0.775835 37.9758 1.05062 37.9758 1.38638V1.9969Z" fill="#C9FF94"/>
<path d="M19.0828 20.0227L21.6168 21.8557C21.6168 21.8557 20.9083 23.0375 19.5824 23.0936C18.2578 23.149 17.752 21.8746 17.752 21.8746L19.0828 20.0227Z" fill="#B2B2B1"/>
<path d="M21.3834 22.1859L18.8467 20.3515L19.0828 20.0228L21.6195 21.8579L21.3834 22.1859Z" fill="#DEDEDC"/>
<path d="M22.3957 20.7475L19.8736 18.9222L17.7519 21.876L16.8004 21.3916L15.853 20.9122C15.853 20.9122 17.2279 19 18.3716 17.4074C18.9151 16.6511 19.5914 16.4226 20.2362 16.6105C20.9495 16.8151 21.6174 17.5287 22.0289 18.5913C22.8092 20.6185 22.3957 20.7475 22.3957 20.7475Z" fill="#C8C7C5"/>
<path d="M15.8516 20.9122C15.8516 20.9122 17.2258 19 18.3715 17.4068C19.5166 15.8128 21.2484 16.5664 22.0288 18.5914C22.8092 20.6171 22.397 20.7468 22.397 20.7468L19.8736 18.9208L17.7518 21.8746L15.8516 20.9122Z" fill="#C8C7C5"/>
<path d="M20.2362 16.6106L16.8004 21.3917L15.853 20.9123C15.853 20.9123 17.2279 19.0001 18.3716 17.4075C18.9151 16.6512 19.5914 16.4227 20.2362 16.6106Z" fill="#BDBCBA"/>
<path d="M15.3661 26.7749L14.082 25.8454L16.1542 22.9631L17.4389 23.8919L15.3661 26.7749Z" fill="#266185"/>
<path d="M16.1157 21.5823L15.1348 20.8722L4.03504 36.3183C3.84013 36.5903 3.89253 36.9814 4.1629 37.177C4.43536 37.3732 4.8203 37.3003 5.01662 37.0284H5.01452L16.1157 21.5823Z" fill="#C8C7C5"/>
<path d="M18.7445 23.4826L17.7643 22.7733L6.66313 38.2201C6.46821 38.4921 6.51992 38.8832 6.79168 39.078C7.06275 39.275 7.44909 39.2021 7.6447 38.9301L7.64191 38.9287L18.7445 23.4826Z" fill="#C8C7C5"/>
<path d="M7.64452 38.9301L7.64173 38.9287L18.7443 23.4827L18.2546 23.128L6.7915 39.078C7.06257 39.275 7.44891 39.2021 7.64452 38.9301Z" fill="#D3D3D1"/>
<path d="M22.2345 21.0027L19.6978 19.1676L19.9332 18.8396L22.4699 20.6739L22.2345 21.0027Z" fill="#E3E3E2"/>
<path d="M5.01681 37.0284H5.01471L16.1159 21.5823L15.6262 21.2276L4.16309 37.177C4.43555 37.3732 4.82049 37.3003 5.01681 37.0284Z" fill="#D3D3D1"/>
<path d="M15.1348 20.8723L18.5155 21.0602L20.2208 22.2938C19.2043 23.709 18.0209 24.8116 16.2694 23.5443L12.4116 28.9122C11.5229 28.2694 10.5658 29.3054 10.5658 29.3054L9.58496 28.5954L15.1348 20.8723Z" fill="#3A97B7"/>
<path d="M18.294 22.7655C18.148 22.9674 17.8678 23.0129 17.6694 22.8678C17.4675 22.722 17.4221 22.4409 17.5653 22.2391C17.7114 22.0372 17.9929 21.9923 18.1934 22.1374C18.3939 22.2825 18.44 22.5636 18.294 22.7655Z" fill="#C8C7C5"/>
</svg>
