<svg width="56" height="31" viewBox="0 0 56 31" fill="none" xmlns="http://www.w3.org/2000/svg">
<path d="M23.442 27.3117C20.364 26.2039 19.1772 23.1826 19.4673 20.4013C19.5647 19.4687 21.2211 19.4627 21.1234 20.4013C20.911 22.4336 21.5256 25.0506 23.8821 25.8984C24.858 26.2495 24.4288 27.6666 23.442 27.3117ZM31.1552 5.15243L27.7503 0.476105L24.3464 5.15068C16.1265 16.4204 14.7193 24.1916 20.1632 28.2485C23.1372 30.4633 26.9801 30.5758 27.7201 30.5758H27.7632C28.5058 30.5758 32.3609 30.4633 35.3335 28.2492C40.7806 24.1933 39.3747 16.4218 31.1552 5.15243Z" fill="#266185"/>
<path d="M55.2503 16.3545C55.2503 13.5436 53.6113 10.6467 49.9494 10.5118C49.9372 10.5111 45.4187 10.5097 44.0343 10.5094C43.8647 10.5094 43.7268 10.6426 43.7268 10.8059V13.6546C43.7268 13.734 43.7585 13.8082 43.8164 13.8644C43.8744 13.9202 43.9515 13.9511 44.0357 13.9511C44.9326 13.9462 47.9784 13.9348 48.5664 14.0045C49.9293 14.1654 51.5539 14.7039 51.5539 16.3545C51.5539 17.9268 50.0618 18.4823 48.8102 18.6717C48.3187 18.7459 47.0419 18.7615 46.0575 18.7615C45.8371 18.7615 45.6391 18.7608 45.4792 18.7597C45.4126 18.7594 45.3525 18.7264 45.3179 18.6717C45.2833 18.6165 45.2812 18.5492 45.3118 18.492L46.0233 17.1649C46.096 17.0294 46.0478 16.8594 45.9135 16.7783L45.1642 16.3244C45.0284 16.2418 44.8358 16.2814 44.7458 16.4086L41.9707 20.3351C41.8991 20.4367 41.8991 20.5674 41.9707 20.6687L44.7443 24.5938C44.8019 24.6749 44.897 24.7231 44.9993 24.7231C45.0569 24.7231 45.113 24.7079 45.1624 24.6781L45.9127 24.2259C46.0474 24.1447 46.096 23.9745 46.0229 23.8385L45.3136 22.5156C45.283 22.458 45.2855 22.3911 45.3201 22.336C45.355 22.2808 45.4158 22.2479 45.4828 22.2479L48.9956 22.2434V22.2437L49.0478 22.2455C49.0864 22.2465 49.1252 22.2479 49.1641 22.2479C49.2153 22.2479 49.266 22.2462 49.3164 22.2444L49.3582 22.243C52.6625 22.1428 55.2503 19.5563 55.2503 16.3545Z" fill="#9BF443"/>
<path d="M0.25 18.042C0.25 20.8528 1.78688 23.7493 5.21979 23.8845C5.23127 23.8849 9.46688 23.8863 10.7651 23.887C10.9241 23.887 11.0534 23.7538 11.0534 23.5901V20.7418C11.0534 20.6624 11.0237 20.5882 10.9693 20.5321C10.915 20.4762 10.8427 20.4454 10.7638 20.4454C9.92292 20.4499 7.06755 20.4613 6.51633 20.392C5.23869 20.2311 3.71565 19.6925 3.71565 18.042C3.71565 16.4697 5.11447 15.9142 6.2878 15.7249C6.74856 15.6503 7.94553 15.6347 8.86839 15.6347C9.07498 15.6347 9.26063 15.6358 9.41051 15.6365C9.47295 15.6372 9.52932 15.6701 9.56173 15.7249C9.59414 15.78 9.59616 15.8469 9.56747 15.9042L8.90046 17.2312C8.83228 17.3668 8.87751 17.5371 9.00342 17.6182L9.70587 18.0718C9.83312 18.1543 10.0137 18.1151 10.0981 17.9879L12.6996 14.0611C12.7668 13.9599 12.7668 13.8288 12.6996 13.7276L10.0994 9.80291C10.0454 9.72177 9.95633 9.67322 9.86047 9.67322C9.80646 9.67322 9.7538 9.68883 9.70755 9.71831L9.00409 10.1708C8.87785 10.252 8.83228 10.4219 8.9008 10.5582L9.56578 11.8811C9.59448 11.9383 9.59211 12.0055 9.55937 12.0607C9.52696 12.1158 9.46991 12.1487 9.40713 12.1487L6.11397 12.1529V12.1526L6.06502 12.1512C6.0289 12.1498 5.99244 12.1487 5.95599 12.1487C5.90805 12.1487 5.86046 12.1505 5.8132 12.1522L5.77405 12.1533C2.67633 12.2538 0.25 14.8403 0.25 18.042Z" fill="#9BF443"/>
</svg>
